<?xml version="1.0" encoding="UTF-8"?>
<svg version="1.1" xmlns="http://www.w3.org/2000/svg" width="1536" height="1024">
<path d="M0 0 C506.88 0 1013.76 0 1536 0 C1536 337.92 1536 675.84 1536 1024 C1029.12 1024 522.24 1024 0 1024 C0 686.08 0 348.16 0 0 Z " fill="#FBFBFC" transform="translate(0,0)"/>
<path d="M0 0 C1.07030457 -0.00006042 1.07030457 -0.00006042 2.16223145 -0.00012207 C3.66504769 0.0052196 5.1678645 0.02274492 6.67041016 0.05175781 C8.96213745 0.09362918 11.25092314 0.092822 13.54296875 0.0859375 C15.00783278 0.09643114 16.47268176 0.1093702 17.9375 0.125 C18.95801453 0.12530212 18.95801453 0.12530212 19.99914551 0.12561035 C24.2917389 0.23164339 27.11018087 0.87351999 30.46875 3.59375 C31.55541992 5.55151367 31.55541992 5.55151367 32.19921875 7.76171875 C32.44478516 8.57318359 32.69035156 9.38464844 32.94335938 10.22070312 C33.29624023 11.48817383 33.29624023 11.48817383 33.65625 12.78125 C34.0265332 14.0197168 34.0265332 14.0197168 34.40429688 15.28320312 C35.9022916 20.35241729 37.21895069 25.45831871 38.46875 30.59375 C39.43361328 30.83158203 39.43361328 30.83158203 40.41796875 31.07421875 C46.9500064 32.76080764 53.16048773 34.91182181 59.42578125 37.41015625 C62.41289413 38.57202429 65.42048144 39.60499921 68.46875 40.59375 C69.15839844 39.94148438 69.84804688 39.28921875 70.55859375 38.6171875 C84.95928706 25.2239501 84.95928706 25.2239501 90.83984375 24.16796875 C94.52463958 24.76476332 96.84613249 26.72751676 99.65625 29.03125 C100.22142334 29.48064941 100.78659668 29.93004883 101.36889648 30.39306641 C106.58576013 34.58449328 111.60878892 38.99334485 116.46875 43.59375 C117.22027344 44.19445312 117.97179687 44.79515625 118.74609375 45.4140625 C120.46875 47.59375 120.46875 47.59375 120.97265625 50.77734375 C120.22541781 56.43666127 117.76359692 60.9527739 115.22460938 66.00976562 C113.03648959 70.5835169 111.72340591 73.55244621 113.46875 78.59375 C114.85355152 80.99533954 114.85355152 80.99533954 116.65625 83.21875 C125.80373987 95.97609641 128.42900015 106.1877649 126.16259766 121.6875 C123.85051968 134.26819958 117.8236998 149.52329428 107.46875 157.59375 C106.14875 157.59375 104.82875 157.59375 103.46875 157.59375 C103.45457031 156.50320313 103.44039062 155.41265625 103.42578125 154.2890625 C102.84203381 131.91625284 95.66815643 112.01168856 81.46875 94.59375 C80.78167969 93.74296875 80.09460938 92.8921875 79.38671875 92.015625 C71.09123202 82.27029644 60.931009 75.16998411 49.46875 69.59375 C48.15583984 68.93246094 48.15583984 68.93246094 46.81640625 68.2578125 C25.58035723 58.42906611 0.17570018 58.09915993 -21.87060547 65.4921875 C-46.26864433 74.47617212 -64.85398523 92.13312298 -75.77734375 115.6015625 C-87.38634011 141.55995719 -87.5798837 168.54149133 -77.90625 195.09375 C-76.60308962 199.13018503 -76.60308962 199.13018503 -73.53125 201.59375 C-73.31339844 200.94277344 -73.09554687 200.29179688 -72.87109375 199.62109375 C-71.04363559 195.49199732 -68.61078961 191.89524178 -66.09375 188.15625 C-65.55951416 187.3607373 -65.02527832 186.56522461 -64.47485352 185.74560547 C-56.4014355 173.8540814 -47.41698256 163.01046978 -37.53125 152.59375 C-36.95246094 151.95050781 -36.37367188 151.30726563 -35.77734375 150.64453125 C-22.6238838 136.50208934 -5.04157098 128.74184603 13.46875 124.59375 C14.66177734 124.30371094 14.66177734 124.30371094 15.87890625 124.0078125 C37.28946413 120.58470671 61.73484264 126.45619865 79.46875 138.59375 C91.4369464 147.3857712 91.4369464 147.3857712 94.46875 153.59375 C94.46875 154.91375 94.46875 156.23375 94.46875 157.59375 C87.82904682 157.03330612 82.05028262 155.30009505 75.78125 153.09375 C73.94495899 152.45559723 72.1077462 151.82008945 70.26953125 151.1875 C69.46684814 150.90583984 68.66416504 150.62417969 67.8371582 150.33398438 C57.40316181 147.07288995 44.04498422 146.87187231 33.984375 151.26953125 C16.15594257 160.65437379 7.13560111 174.55204453 -3.09375 191.28125 C-7.48363392 198.44355953 -11.84750958 205.36757793 -17.53125 211.59375 C-18.58699219 212.769375 -18.58699219 212.769375 -19.6640625 213.96875 C-29.13312117 223.99869367 -38.89336684 228.41860361 -52.53125 229.59375 C-48.31012047 233.43114048 -45.48394133 234.985154 -39.71875 235.15625 C-27.14531857 234.53070615 -18.58114831 227.9553983 -10.10546875 219.04296875 C-4.04664333 212.03218386 1.15479242 204.43562335 6.42358398 196.82592773 C10.55011851 190.87078756 14.70532705 185.06325556 19.46875 179.59375 C20.05140625 178.89378906 20.6340625 178.19382812 21.234375 177.47265625 C27.54547041 170.45885484 37.79801938 164.32873985 47.26953125 163.28515625 C57.6765311 162.9031418 66.65945585 165.21524895 76.59765625 168.18359375 C83.39975974 170.19442755 89.72045425 170.79909675 96.78125 170.84375 C97.58498047 170.864375 98.38871094 170.885 99.21679688 170.90625 C105.00671958 170.94351418 110.20861729 170.12532472 115.46875 167.59375 C116.355625 166.706875 117.2425 165.82 118.15625 164.90625 C121.32192994 161.8766308 124.62276237 162.27278262 128.84375 162.28125 C131.05308905 162.36129852 133.26214979 162.4577267 135.46875 162.59375 C135.46875 161.93375 135.46875 161.27375 135.46875 160.59375 C136.45875 160.26375 137.44875 159.93375 138.46875 159.59375 C138.36797992 161.42261981 138.26644431 163.25145016 138.16137695 165.08007812 C138.07413492 166.6396317 137.99331282 168.19955679 137.91870117 169.75976562 C137.69098764 174.1588807 137.14523457 178.26765581 136.28125 182.59375 C135.92898725 186.1163775 136.1475576 187.18059795 138.3515625 190.015625 C140.95505587 192.38822752 143.63060303 194.50874259 146.46875 196.59375 C148.0477298 197.78046752 149.61226476 198.98684689 151.15625 200.21875 C152.15205078 200.94964844 152.15205078 200.94964844 153.16796875 201.6953125 C154.46875 203.59375 154.46875 203.59375 154.21142578 206.82519531 C153.48752996 210.49845495 152.45354027 213.40083437 150.88671875 216.7890625 C150.36658203 217.91699219 149.84644531 219.04492188 149.31054688 220.20703125 C148.76462891 221.36589844 148.21871094 222.52476562 147.65625 223.71875 C146.85477539 225.46865234 146.85477539 225.46865234 146.03710938 227.25390625 C143.59139485 232.50632638 141.37269689 237.24808709 137.46875 241.59375 C131.04407623 243.39218538 123.66576371 240.85602538 117.44921875 239.15234375 C114.22103568 238.54732386 112.54091499 238.45027645 109.46875 239.59375 C106.75338762 241.86153903 106.75338762 241.86153903 104.15625 244.71875 C103.19630438 245.72484999 102.23405056 246.72875259 101.26953125 247.73046875 C100.79854004 248.2207959 100.32754883 248.71112305 99.84228516 249.21630859 C97.37210652 251.69351227 94.66137406 253.87881937 91.9296875 256.05859375 C90.13223558 257.94736008 89.74575373 259.00681682 89.46875 261.59375 C89.78501673 264.25077015 89.78501673 264.25077015 90.40625 267.09375 C91.14980452 271.40214746 91.80778166 275.66618605 92.09375 280.03125 C92.20589844 281.45244141 92.20589844 281.45244141 92.3203125 282.90234375 C91.14596109 286.61394065 89.27422117 287.48707352 85.95556641 289.34594727 C81.31758292 291.67313494 76.61143598 293.79695422 71.84375 295.84375 C70.833125 296.28976562 69.8225 296.73578125 68.78125 297.1953125 C67.79898438 297.62070312 66.81671875 298.04609375 65.8046875 298.484375 C64.92345215 298.86625977 64.0422168 299.24814453 63.13427734 299.64160156 C59.18574158 301.05205123 55.88871741 302.16694785 51.9140625 300.5625 C48.85910973 298.10292141 46.62860577 295.24503426 44.34375 292.09375 C40.79070842 286.98984135 40.79070842 286.98984135 36.46875 282.59375 C34.53136972 282.36287557 34.53136972 282.36287557 32.43359375 282.73828125 C31.23259033 282.88861816 31.23259033 282.88861816 30.00732422 283.04199219 C29.14896973 283.16219727 28.29061523 283.28240234 27.40625 283.40625 C15.25839989 284.85878232 2.4955287 286.17454441 -9.48828125 283.03125 C-12.02898061 282.48716142 -13.93908672 282.23899048 -16.53125 282.59375 C-18.85688235 284.49404452 -18.85688235 284.49404452 -20.90625 287.09375 C-22.07607422 288.45113281 -22.07607422 288.45113281 -23.26953125 289.8359375 C-24.67202805 291.54606313 -26.04982466 293.27717682 -27.38671875 295.0390625 C-27.95003906 295.75835938 -28.51335937 296.47765625 -29.09375 297.21875 C-29.56941406 297.87101562 -30.04507813 298.52328125 -30.53515625 299.1953125 C-33.00346762 300.92457956 -34.98194342 301.23392667 -37.97387695 301.10107422 C-43.26889655 300.05066365 -48.09404474 297.58345793 -52.93286133 295.25927734 C-54.84819817 294.34161883 -56.77504478 293.45266855 -58.70507812 292.56640625 C-69.23949801 287.62037966 -69.23949801 287.62037966 -71.53125 283.59375 C-71.640625 280.78125 -71.640625 280.78125 -71.28125 277.59375 C-71.17296875 276.44648437 -71.0646875 275.29921875 -70.953125 274.1171875 C-70.6810546 271.84489581 -70.36147923 269.57755068 -69.984375 267.3203125 C-69.02806452 261.72691931 -69.02806452 261.72691931 -70.74609375 256.53515625 C-72.56476454 254.6834937 -74.45698284 253.15233664 -76.53125 251.59375 C-77.91350029 250.39371726 -79.28855583 249.18534653 -80.65625 247.96875 C-81.32914062 247.39769531 -82.00203125 246.82664062 -82.6953125 246.23828125 C-84.53125 244.59375 -84.53125 244.59375 -87.03125 241.65625 C-89.89243293 239.29577408 -91.6296715 239.05767934 -95.296875 239.28515625 C-97.71656734 239.61934453 -100.07965875 240.08551164 -102.46875 240.59375 C-105.76116882 241.28262532 -108.98440357 241.87053761 -112.34375 242.09375 C-113.03082031 242.1453125 -113.71789062 242.196875 -114.42578125 242.25 C-118.86737757 240.86560634 -120.9139231 236.70575081 -123.05249023 232.85351562 C-124.70821575 229.62585379 -126.28541098 226.36948086 -127.84375 223.09375 C-128.39353516 221.97871094 -128.94332031 220.86367188 -129.50976562 219.71484375 C-130.02861328 218.63332031 -130.54746094 217.55179688 -131.08203125 216.4375 C-131.55294189 215.45974609 -132.02385254 214.48199219 -132.5090332 213.47460938 C-133.63388065 210.30451148 -133.79525103 207.93331853 -133.53125 204.59375 C-132.5 202.72265625 -132.5 202.72265625 -131.03125 201.15625 C-130.48855469 200.57488281 -129.94585937 199.99351562 -129.38671875 199.39453125 C-126.7982905 196.88239351 -124.11926771 194.49842767 -121.36328125 192.171875 C-120.75871094 191.65109375 -120.15414063 191.1303125 -119.53125 190.59375 C-118.9962085 190.15450195 -118.46116699 189.71525391 -117.90991211 189.26269531 C-116.34899681 187.69500452 -116.34899681 187.69500452 -116.35839844 185.59179688 C-116.4515332 184.83962891 -116.54466797 184.08746094 -116.640625 183.3125 C-116.7348877 182.47533447 -116.82915039 181.63816895 -116.92626953 180.77563477 C-117.04341309 179.89061279 -117.16055664 179.00559082 -117.28125 178.09375 C-117.50404144 176.2801239 -117.72540664 174.466322 -117.9453125 172.65234375 C-118.05391602 171.7794873 -118.16251953 170.90663086 -118.27441406 170.00732422 C-118.58854246 167.05535338 -118.61555388 164.1229974 -118.65625 161.15625 C-118.91635412 158.37313595 -119.06896347 157.08834688 -120.984375 155.0390625 C-123.099516 153.6547629 -125.22732182 152.63435148 -127.53125 151.59375 C-129.47550633 150.56474903 -131.41287819 149.52265215 -133.34375 148.46875 C-134.25769531 147.99179687 -135.17164063 147.51484375 -136.11328125 147.0234375 C-138.41721798 145.66117442 -139.87287912 144.67174076 -141.53125 142.59375 C-142.82937528 134.71674291 -140.88329097 126.37233743 -139.34375 118.65625 C-139.04887695 116.99239258 -139.04887695 116.99239258 -138.74804688 115.29492188 C-137.88450731 110.90282677 -137.20443886 107.50046755 -134.515625 103.87890625 C-130.04148513 101.95221513 -125.79340056 101.99516835 -120.96875 101.96875 C-119.0923169 101.94316809 -117.21597153 101.90961583 -115.33984375 101.8671875 C-114.09932251 101.85824463 -114.09932251 101.85824463 -112.83374023 101.84912109 C-110.25834445 101.56348182 -108.70464598 100.99634185 -106.53125 99.59375 C-104.92466546 97.21692457 -103.48904966 94.90043851 -102.09375 92.40625 C-101.34813583 91.0984974 -100.59943769 89.79249827 -99.84765625 88.48828125 C-99.47785645 87.83811035 -99.10805664 87.18793945 -98.72705078 86.51806641 C-97.5082158 84.55668272 -96.13456126 82.83675553 -94.68359375 81.04296875 C-92.72175402 78.32937101 -92.53244785 77.71087279 -92.49609375 74.15625 C-93.89032886 69.35797672 -95.90018305 65.03227034 -98.09179688 60.5546875 C-100.1765037 56.08314243 -101.14432286 52.63320895 -100.53125 47.59375 C-99.38671875 45.6953125 -99.38671875 45.6953125 -97.71875 44.21875 C-97.079375 43.64382813 -96.44 43.06890625 -95.78125 42.4765625 C-95.03875 41.85523438 -94.29625 41.23390625 -93.53125 40.59375 C-92.685625 39.86929688 -91.84 39.14484375 -90.96875 38.3984375 C-88.19630544 36.07493993 -85.37784493 33.82560572 -82.53125 31.59375 C-81.64566406 30.87960937 -80.76007813 30.16546875 -79.84765625 29.4296875 C-79.00074219 28.78257812 -78.15382813 28.13546875 -77.28125 27.46875 C-76.53359375 26.88867188 -75.7859375 26.30859375 -75.015625 25.7109375 C-71.39424131 24.08245364 -69.32993443 24.53126699 -65.53125 25.59375 C-63.08563854 27.12190538 -61.0196909 28.95207558 -58.90625 30.90625 C-57.81032125 31.88198845 -56.71397332 32.8572563 -55.6171875 33.83203125 C-55.09995117 34.29947754 -54.58271484 34.76692383 -54.04980469 35.24853516 C-51.94311108 37.11475409 -49.74718215 38.85972131 -47.53125 40.59375 C-44.937332 39.57033144 -42.36276036 38.52060908 -39.8046875 37.41015625 C-33.82472037 34.82313543 -28.2571453 32.88761577 -21.80859375 31.85546875 C-18.77027276 30.17214511 -18.17640098 28.07812073 -17.1418457 24.86010742 C-15.96994006 20.51032729 -15.06408704 16.11439627 -14.24609375 11.68554688 C-14.01986328 10.61336914 -14.01986328 10.61336914 -13.7890625 9.51953125 C-13.60561279 8.56687378 -13.60561279 8.56687378 -13.41845703 7.5949707 C-10.63783765 1.32289115 -6.43051989 -0.15496605 0 0 Z " fill="#00274A" transform="translate(404.53125,329.40625)"/>
<path d="M0 0 C-0.10077008 1.82886981 -0.20230569 3.65770016 -0.30737305 5.48632812 C-0.39461508 7.0458817 -0.47543718 8.60580679 -0.55004883 10.16601562 C-0.77776236 14.5651307 -1.32351543 18.67390581 -2.1875 23 C-2.53976275 26.5226275 -2.3211924 27.58684795 -0.1171875 30.421875 C2.48630587 32.79447752 5.16185303 34.91499259 8 37 C9.5789798 38.18671752 11.14351476 39.39309689 12.6875 40.625 C13.35136719 41.11226562 14.01523437 41.59953125 14.69921875 42.1015625 C16 44 16 44 15.74267578 47.23144531 C15.01877996 50.90470495 13.98479027 53.80708437 12.41796875 57.1953125 C11.89783203 58.32324219 11.37769531 59.45117188 10.84179688 60.61328125 C10.29587891 61.77214844 9.74996094 62.93101562 9.1875 64.125 C8.65318359 65.29160156 8.11886719 66.45820312 7.56835938 67.66015625 C5.12264485 72.91257638 2.90394689 77.65433709 -1 82 C-7.42467377 83.79843538 -14.80298629 81.26227538 -21.01953125 79.55859375 C-24.24771432 78.95357386 -25.92783501 78.85652645 -29 80 C-31.71536238 82.26778903 -31.71536238 82.26778903 -34.3125 85.125 C-35.27244562 86.13109999 -36.23469944 87.13500259 -37.19921875 88.13671875 C-37.67020996 88.6270459 -38.14120117 89.11737305 -38.62646484 89.62255859 C-41.09664348 92.09976227 -43.80737594 94.28506937 -46.5390625 96.46484375 C-48.33651442 98.35361008 -48.72299627 99.41306682 -49 102 C-48.68373327 104.65702015 -48.68373327 104.65702015 -48.0625 107.5 C-47.31894548 111.80839746 -46.66096834 116.07243605 -46.375 120.4375 C-46.26285156 121.85869141 -46.26285156 121.85869141 -46.1484375 123.30859375 C-47.32278891 127.02019065 -49.19452883 127.89332352 -52.51318359 129.75219727 C-57.15116708 132.07938494 -61.85731402 134.20320422 -66.625 136.25 C-67.635625 136.69601562 -68.64625 137.14203125 -69.6875 137.6015625 C-70.66976562 138.02695312 -71.65203125 138.45234375 -72.6640625 138.890625 C-73.54529785 139.27250977 -74.4265332 139.65439453 -75.33447266 140.04785156 C-79.27601979 141.45580483 -82.57677656 142.57715974 -86.54296875 140.96875 C-89.66111845 138.47026439 -91.9279405 135.68647803 -94.3125 132.5 C-94.9940918 131.62794922 -94.9940918 131.62794922 -95.68945312 130.73828125 C-98.36371378 127.22353868 -99.26775857 125.46932906 -98.7890625 121.0546875 C-98.27102455 114.17218335 -100.58846208 110.15810588 -105 105 C-111.17969173 98.52998719 -116.96318241 96.81430433 -125.875 96.5625 C-146.53877982 95.59967155 -164.92176433 89.84343666 -182 78 C-182.33 77.34 -182.66 76.68 -183 76 C-181.54980469 75.88785156 -181.54980469 75.88785156 -180.0703125 75.7734375 C-165.01737802 74.25324016 -154.99180772 67.4227108 -145.3125 55.75 C-140.68873066 49.78265039 -136.45416672 43.53136126 -132.1472168 37.33398438 C-127.98030979 31.35349835 -123.79191885 25.5022254 -119 20 C-118.41734375 19.30003906 -117.8346875 18.60007812 -117.234375 17.87890625 C-110.92327959 10.86510484 -100.67073062 4.73498985 -91.19921875 3.69140625 C-80.7922189 3.3093918 -71.80929415 5.62149895 -61.87109375 8.58984375 C-55.06899026 10.60067755 -48.74829575 11.20534675 -41.6875 11.25 C-40.88376953 11.270625 -40.08003906 11.29125 -39.25195312 11.3125 C-33.46203042 11.34976418 -28.26013271 10.53157472 -23 8 C-21.6696875 6.6696875 -21.6696875 6.6696875 -20.3125 5.3125 C-17.14682006 2.2828808 -13.84598763 2.67903262 -9.625 2.6875 C-7.41566095 2.76754852 -5.20660021 2.8639767 -3 3 C-3 2.34 -3 1.68 -3 1 C-1 0 -1 0 0 0 Z " fill="#0093A6" transform="translate(543,489)"/>
<path d="M0 0 C11.9681964 8.7920212 11.9681964 8.7920212 15 15 C15 16.32 15 17.64 15 19 C8.36029682 18.43955612 2.58153262 16.70634505 -3.6875 14.5 C-5.52379101 13.86184723 -7.3610038 13.22633945 -9.19921875 12.59375 C-10.00190186 12.31208984 -10.80458496 12.03042969 -11.6315918 11.74023438 C-22.06558819 8.47913995 -35.42376578 8.27812231 -45.484375 12.67578125 C-63.31280743 22.06062379 -72.33314889 35.95829453 -82.5625 52.6875 C-86.95238392 59.84980953 -91.31625958 66.77382793 -97 73 C-98.05574219 74.175625 -98.05574219 74.175625 -99.1328125 75.375 C-105.78999719 82.42651271 -113.30290832 88.12863143 -123 90 C-123.86753906 90.20238281 -124.73507812 90.40476562 -125.62890625 90.61328125 C-128.599904 91.14280602 -131.00429467 91.39440499 -134 91 C-137.03798703 88.82748602 -138.87666315 86.0355471 -141 83 C-142.154568 81.73881649 -143.32130927 80.48866835 -144.5 79.25 C-148.82154302 74.35029137 -151.87130266 68.70583102 -155 63 C-154.34 63 -153.68 63 -153 63 C-152.78214844 62.34902344 -152.56429688 61.69804688 -152.33984375 61.02734375 C-150.51238559 56.89824732 -148.07953961 53.30149178 -145.5625 49.5625 C-145.02826416 48.7669873 -144.49402832 47.97147461 -143.94360352 47.15185547 C-135.8701855 35.2603314 -126.88573256 24.41671978 -117 14 C-116.42121094 13.35675781 -115.84242188 12.71351563 -115.24609375 12.05078125 C-102.0926338 -2.09166066 -84.51032098 -9.85190397 -66 -14 C-64.80697266 -14.29003906 -64.80697266 -14.29003906 -63.58984375 -14.5859375 C-42.17928587 -18.00904329 -17.73390736 -12.13755135 0 0 Z " fill="#0193A6" transform="translate(484,468)"/>
<path d="M0 0 C11.01375 -0.1546875 11.01375 -0.1546875 22.25 -0.3125 C25.68841309 -0.38078003 25.68841309 -0.38078003 29.19628906 -0.45043945 C41.7480952 -0.59621391 52.0916421 -0.39380389 62 8.25 C68.83142462 16.10029235 69.80731769 23.85898907 69.37109375 33.96484375 C68.70242435 43.01166991 64.86725254 47.7303532 58.12109375 53.56640625 C56 55 56 55 53 55 C56.3812995 61.32654482 60.09407645 67.31921473 64.125 73.25 C65.17032799 74.79616081 66.21462921 76.34301637 67.2578125 77.890625 C67.7130127 78.56125977 68.16821289 79.23189453 68.63720703 79.92285156 C70.15975076 82.24348969 71.58569029 84.61215039 73 87 C51.71428822 89.52995889 51.71428822 89.52995889 45.93115234 85.59082031 C42.64293852 81.90394428 40.70197624 77.58177183 38.86279297 73.03515625 C37.6621544 70.20308972 36.04559678 67.70097689 34.375 65.125 C32 61.25414365 32 61.25414365 32 59 C28.37 59 24.74 59 21 59 C21 68.24 21 77.48 21 87 C14.07 87 7.14 87 0 87 C0 58.29 0 29.58 0 0 Z " fill="#012649" transform="translate(718,335)"/>
<path d="M0 0 C11.075625 -0.12375 11.075625 -0.12375 22.375 -0.25 C25.8407251 -0.30462402 25.8407251 -0.30462402 29.37646484 -0.36035156 C31.23794632 -0.37205004 33.09943815 -0.38223911 34.9609375 -0.390625 C36.37403198 -0.4213208 36.37403198 -0.4213208 37.81567383 -0.45263672 C46.01064235 -0.45688392 52.47731943 1.67370151 59.3125 6.1875 C66.56823285 13.7807088 68.36568632 21.36273903 68.28515625 31.6015625 C67.69975976 38.5782056 64.98301448 45.01698552 60 50 C54.7027027 54 54.7027027 54 51 54 C54.31571578 60.43946908 58.2006278 66.43084406 62.25732422 72.41821289 C65.27879843 76.88156546 68.17081777 81.41236062 71 86 C63.09116489 87.6740896 54.69665399 89.02265081 47 86 C39.6438477 79.15336474 34.81493785 69.165782 31 60 C31 59.34 31 58.68 31 58 C27.37 58 23.74 58 20 58 C20 67.24 20 76.48 20 86 C13.4 86 6.8 86 0 86 C0 57.62 0 29.24 0 0 Z " fill="#012446" transform="translate(871,566)"/>
<path d="M0 0 C5.94 0 11.88 0 18 0 C24.49464529 7.05332446 24.49464529 7.05332446 26.3671875 10.46484375 C29.13023501 15.29438102 32.25951563 19.81170399 35.4375 24.375 C36.41661618 25.81946491 37.39444429 27.26480362 38.37109375 28.7109375 C43.50483433 36.19326769 48.76707875 43.58669489 54 51 C54.33 34.17 54.66 17.34 55 0 C61.27 0 67.54 0 74 0 C74 28.38 74 56.76 74 86 C56 86 56 86 52.00390625 82.84375 C50.71118164 80.77001953 50.71118164 80.77001953 49.5625 78.5 C48.61516593 76.92412879 47.6672358 75.34861578 46.71875 73.7734375 C46.26757812 72.97131836 45.81640625 72.16919922 45.3515625 71.34277344 C43.29563499 67.77906672 40.93544584 64.48667328 38.5625 61.125 C32.37325405 52.08452839 26.18675317 43.0421777 20 34 C19.67 51.16 19.34 68.32 19 86 C12.73 86 6.46 86 0 86 C0 57.62 0 29.24 0 0 Z " fill="#002446" transform="translate(705,566)"/>
<path d="M0 0 C3.9783572 3.1001914 7.39924556 6.71878744 10.3359375 10.8203125 C10.3359375 11.4803125 10.3359375 12.1403125 10.3359375 12.8203125 C8.1167166 14.49066192 5.91770745 16.0111308 3.5859375 17.5078125 C2.95171875 17.93642578 2.3175 18.36503906 1.6640625 18.80664062 C-3.11662975 21.89915093 -3.11662975 21.89915093 -5.77294922 21.51660156 C-8.04656876 20.67947751 -9.29633181 19.5559976 -11.0390625 17.8828125 C-16.77052052 12.85119567 -22.22554577 12.34921931 -29.6953125 12.515625 C-35.05898988 13.06610768 -38.69146373 14.75084504 -42.4140625 18.65625 C-48.61193234 26.43338475 -49.54091084 34.07380595 -48.6640625 43.8203125 C-47.1893817 51.09104886 -44.51490469 55.80243088 -38.76171875 60.48046875 C-32.9129944 64.21624613 -27.44558227 64.5552097 -20.6640625 63.8203125 C-13.98569553 62.08039474 -9.41599573 58.59560972 -5.6640625 52.8203125 C-5.3340625 51.8303125 -5.0040625 50.8403125 -4.6640625 49.8203125 C-15.5540625 49.3253125 -15.5540625 49.3253125 -26.6640625 48.8203125 C-26.6640625 43.5403125 -26.6640625 38.2603125 -26.6640625 32.8203125 C-13.1340625 32.8203125 0.3959375 32.8203125 14.3359375 32.8203125 C14.4596875 36.9040625 14.5834375 40.9878125 14.7109375 45.1953125 C14.79287354 47.09482666 14.79287354 47.09482666 14.87646484 49.03271484 C15.00998319 58.21676706 12.67186402 64.19630261 6.38842773 70.8972168 C-3.45991276 80.38006287 -15.29261814 83.21745377 -28.57299805 83.19116211 C-39.88885839 82.87421723 -49.71357136 78.53745105 -57.85546875 70.71484375 C-68.71341861 59.09703737 -70.25572817 47.55153379 -69.9765625 32.16796875 C-69.72501982 26.11522302 -68.63564667 21.13398637 -65.6640625 15.8203125 C-65.23996094 15.03914062 -64.81585937 14.25796875 -64.37890625 13.453125 C-58.38532544 3.53616957 -49.87215064 -2.65053377 -39.1015625 -6.4296875 C-25.80448693 -9.32944268 -11.45448011 -7.37683347 0 0 Z " fill="#012547" transform="translate(1019.6640625,571.1796875)"/>
<path d="M0 0 C7.26 0 14.52 0 22 0 C26.36687622 9.35086169 30.22982837 18.8631943 34.05078125 28.4453125 C34.71606607 30.10878435 35.3815304 31.77218441 36.04716492 33.43551636 C37.43126667 36.89581529 38.81360306 40.35681223 40.19458008 43.81835938 C41.96823151 48.2639226 43.74576634 52.70792078 45.52451801 57.15144539 C46.89408516 60.57369838 48.26193969 63.99663373 49.62923241 67.41979599 C50.2846692 69.06031583 50.94057381 70.70064885 51.59694862 72.34079361 C52.50814894 74.61861013 53.41711612 76.89730452 54.32543945 79.17626953 C54.59810638 79.85669815 54.87077332 80.53712677 55.15170288 81.23817444 C57 85.88561971 57 85.88561971 57 87 C49.41 87 41.82 87 34 87 C33.175 84.751875 32.35 82.50375 31.5 80.1875 C31.23896484 79.48391357 30.97792969 78.78032715 30.70898438 78.05541992 C29.68412514 75.22363626 29 73.03435748 29 70 C17.45 70 5.9 70 -6 70 C-6.99 73.63 -7.98 77.26 -9 81 C-9.99 82.98 -10.98 84.96 -12 87 C-19.26 87 -26.52 87 -34 87 C-29.56063372 75.08380629 -25.00411073 63.21863201 -20.375 51.375 C-20.03049805 50.49256622 -19.68599609 49.61013245 -19.33105469 48.70095825 C-12.97790388 32.4307253 -6.52525449 16.20191031 0 0 Z " fill="#012547" transform="translate(1055,335)"/>
<path d="M0 0 C19.47 0 38.94 0 59 0 C59 5.61 59 11.22 59 17 C46.13 17 33.26 17 20 17 C20 22.94 20 28.88 20 35 C31.55 35 43.1 35 55 35 C55 40.28 55 45.56 55 51 C43.45 51 31.9 51 20 51 C20 56.94 20 62.88 20 69 C33.53 69 47.06 69 61 69 C61 74.61 61 80.22 61 86 C40.87 86 20.74 86 0 86 C0 57.62 0 29.24 0 0 Z " fill="#00284C" transform="translate(757,453)"/>
<path d="M0 0 C18.81 0 37.62 0 57 0 C57 5.61 57 11.22 57 17 C44.79 17 32.58 17 20 17 C20 22.61 20 28.22 20 34 C30.89 34 41.78 34 53 34 C53 39.61 53 45.22 53 51 C42.11 51 31.22 51 20 51 C20 56.94 20 62.88 20 69 C32.87 69 45.74 69 59 69 C59 74.61 59 80.22 59 86 C39.53 86 20.06 86 0 86 C0 57.62 0 29.24 0 0 Z " fill="#03284A" transform="translate(630,566)"/>
<path d="M0 0 C18.81 0 37.62 0 57 0 C57 5.61 57 11.22 57 17 C44.79 17 32.58 17 20 17 C20 22.61 20 28.22 20 34 C30.56 34 41.12 34 52 34 C52 39.61 52 45.22 52 51 C41.44 51 30.88 51 20 51 C20 56.94 20 62.88 20 69 C32.54 69 45.08 69 58 69 C58 74.61 58 80.22 58 86 C38.86 86 19.72 86 0 86 C0 57.62 0 29.24 0 0 Z " fill="#02294C" transform="translate(797,566)"/>
<path d="M0 0 C2.13347011 1.39801923 4.18791459 2.83625889 6.203125 4.3984375 C5.65543129 8.58082584 3.30423611 10.99712295 0.640625 14.1484375 C-0.18566406 15.13328125 -1.01195312 16.118125 -1.86328125 17.1328125 C-2.50136719 17.88046875 -3.13945313 18.628125 -3.796875 19.3984375 C-7.48566799 17.59595911 -11.02337583 15.5708163 -14.578125 13.51953125 C-18.95746154 11.30673268 -22.9074881 11.0612384 -27.796875 11.3984375 C-32.10531424 12.98071352 -32.10531424 12.98071352 -34.796875 16.3984375 C-35.16742702 19.8075161 -35.35821202 21.66080116 -33.2421875 24.44140625 C-30.18078483 26.89150647 -27.07401521 27.8200467 -23.359375 28.8359375 C-21.92614153 29.25722575 -20.49385838 29.68175931 -19.0625 30.109375 C-17.99032227 30.42793457 -17.99032227 30.42793457 -16.89648438 30.75292969 C-13.75979477 31.71727938 -10.68445515 32.81655836 -7.609375 33.9609375 C-6.60519531 34.33347656 -5.60101562 34.70601563 -4.56640625 35.08984375 C0.96161088 37.70181235 4.45827979 41.21490195 7.24609375 46.578125 C9.80449747 54.11758412 9.43095043 62.69284077 6.203125 69.9609375 C1.95020605 77.12437361 -4.61521739 81.1179925 -12.4140625 83.703125 C-27.74478602 86.85424369 -41.44554776 83.99332818 -54.73828125 75.9609375 C-56.796875 74.3984375 -56.796875 74.3984375 -59.796875 70.3984375 C-56.496875 66.1084375 -53.196875 61.8184375 -49.796875 57.3984375 C-46.30205024 59.14584988 -43.15516558 61.0534687 -39.89453125 63.1796875 C-34.98786144 66.03049007 -30.98779929 66.73919179 -25.296875 66.8359375 C-23.36328125 66.89587891 -23.36328125 66.89587891 -21.390625 66.95703125 C-16.93310068 66.26417693 -15.49068498 64.95241243 -12.796875 61.3984375 C-12.38337731 57.79261971 -12.38337731 57.79261971 -13.796875 54.3984375 C-18.41862598 50.62221615 -23.00527701 49.27015154 -28.671875 47.8984375 C-37.66242138 45.70007456 -46.63112898 42.68806633 -52.796875 35.3984375 C-56.807323 28.45409243 -58.15778873 21.6327211 -56.13671875 13.859375 C-53.18518688 5.4008724 -48.48187499 0.42097208 -40.484375 -3.5390625 C-27.61814922 -8.40823567 -11.85228283 -6.78692173 0 0 Z " fill="#022546" transform="translate(887.796875,456.6015625)"/>
<path d="M0 0 C2.72411304 1.89964697 4.82441318 3.41549373 6.46875 6.3359375 C6.44923317 10.00510164 3.85688713 12.19406979 1.51953125 14.7890625 C1.03806641 15.34335937 0.55660156 15.89765625 0.06054688 16.46875 C-1.12937753 17.83539585 -2.3347439 19.18856864 -3.54296875 20.5390625 C-4.09984375 20.14074219 -4.65671875 19.74242187 -5.23046875 19.33203125 C-12.51976696 14.27138672 -18.46794224 10.52066428 -27.5546875 12.04296875 C-30.34873591 12.74010853 -31.79651791 13.1851505 -33.54296875 15.5390625 C-34.23470329 19.64776108 -34.23470329 19.64776108 -33.54296875 23.5390625 C-29.37573932 28.09214651 -24.11642548 28.97495866 -18.35546875 30.4140625 C-8.53857996 33.07621273 -0.07865327 35.41128464 6.08203125 44.0390625 C9.76071753 50.93790192 9.5165614 58.48221407 7.94140625 66 C5.41283085 73.67393232 1.3780735 77.27639834 -5.54296875 80.8515625 C-16.11053333 85.98707539 -29.82334603 86.43022515 -41.04296875 82.9140625 C-55.11987516 77.38524968 -55.11987516 77.38524968 -58.54296875 70.5390625 C-55.24296875 66.2490625 -51.94296875 61.9590625 -48.54296875 57.5390625 C-44.52313301 59.54898037 -40.78988222 61.82414236 -36.98046875 64.19921875 C-32.80254463 66.49573794 -29.2832376 66.69693582 -24.54296875 66.7265625 C-22.99609375 66.74783203 -22.99609375 66.74783203 -21.41796875 66.76953125 C-18.54600722 66.53930607 -16.94465758 66.08339788 -14.54296875 64.5390625 C-12.68369339 62.06002869 -12.54296875 60.66008052 -12.54296875 57.5390625 C-13.84192255 53.64220109 -16.0177047 52.32448918 -19.54296875 50.5390625 C-22.43700185 49.53362051 -25.3783756 48.81703372 -28.35546875 48.1015625 C-38.96318551 45.34558889 -47.92330371 41.86421085 -53.85546875 32.0390625 C-56.80239279 25.63795701 -56.72557664 18.35375787 -54.66015625 11.69140625 C-51.17001768 4.02928085 -46.33777313 -0.48911377 -38.66796875 -3.8359375 C-26.2068432 -7.90976701 -11.34586165 -6.51820623 0 0 Z " fill="#022547" transform="translate(1214.54296875,569.4609375)"/>
<path d="M0 0 C0.74830078 0.72509766 0.74830078 0.72509766 1.51171875 1.46484375 C1.51171875 5.67031946 -0.85566249 7.63194736 -3.48828125 10.65234375 C-4.20371094 11.49055664 -4.20371094 11.49055664 -4.93359375 12.34570312 C-6.11194331 13.72437211 -7.29927077 15.09535847 -8.48828125 16.46484375 C-12.02004485 14.76991256 -15.22079684 12.73660595 -18.48828125 10.5859375 C-22.88149344 8.12333614 -27.54146338 8.05734726 -32.48828125 8.46484375 C-35.85649397 9.36281488 -35.85649397 9.36281488 -38.48828125 10.46484375 C-38.75640625 11.68171875 -39.02453125 12.89859375 -39.30078125 14.15234375 C-39.45160156 14.83683594 -39.60242188 15.52132813 -39.7578125 16.2265625 C-39.42428335 18.9963046 -38.39122453 20.3897813 -36.3449707 22.25317383 C-32.22724614 24.94038842 -27.34985779 26.07532976 -22.67578125 27.46484375 C-3.92522135 33.10032052 -3.92522135 33.10032052 1.51171875 41.46484375 C4.75689708 48.08453722 4.76735099 56.97850369 2.7890625 64.046875 C-0.54734136 71.11140626 -6.51733821 76.42771473 -13.71875 79.37890625 C-26.01955083 83.36131378 -39.76430509 82.95730823 -51.48828125 77.46484375 C-56.28045379 74.95059432 -60.78000061 72.4574654 -64.48828125 68.46484375 C-62.92460768 64.94246328 -60.79332236 62.19360381 -58.36328125 59.21484375 C-57.63882813 58.3228125 -56.914375 57.43078125 -56.16796875 56.51171875 C-55.61367188 55.83625 -55.059375 55.16078125 -54.48828125 54.46484375 C-51.23897693 55.6812211 -48.42938072 57.03400402 -45.55078125 58.96484375 C-38.51544853 63.3896634 -31.767868 64.50118503 -23.48828125 63.46484375 C-19.78287886 61.68941568 -19.78287886 61.68941568 -17.48828125 58.46484375 C-17.01104292 54.08848736 -17.01104292 54.08848736 -19.1340332 50.39941406 C-21.86847745 48.15242285 -24.07671183 47.36988813 -27.46875 46.38671875 C-28.63341797 46.02964844 -29.79808594 45.67257812 -30.99804688 45.3046875 C-33.42767558 44.58470193 -35.85995282 43.87358761 -38.29492188 43.171875 C-47.50354649 40.32363778 -54.16404939 36.50155869 -59.55078125 28.33984375 C-61.26856736 21.23966114 -62.01729427 12.96181197 -59.05078125 6.08984375 C-55.10704659 -0.36732743 -48.71154 -6.15232597 -41.3203125 -8.1328125 C-26.44694107 -10.24585699 -12.65472849 -8.56522916 0 0 Z " fill="#022446" transform="translate(941.48828125,342.53515625)"/>
<path d="M0 0 C18.48 0 36.96 0 56 0 C56 5.61 56 11.22 56 17 C43.79 17 31.58 17 19 17 C19 22.61 19 28.22 19 34 C29.89 34 40.78 34 52 34 C52 39.61 52 45.22 52 51 C41.11 51 30.22 51 19 51 C19 56.94 19 62.88 19 69 C31.87 69 44.74 69 58 69 C58 74.61 58 80.22 58 86 C38.86 86 19.72 86 0 86 C0 57.62 0 29.24 0 0 Z " fill="#022547" transform="translate(1088,566)"/>
<path d="M0 0 C2.09521579 1.59201696 4.03899919 3.24012748 6 5 C4.41332422 8.90285767 1.86649519 11.33520982 -1.125 14.25 C-2.49011719 15.58804687 -2.49011719 15.58804687 -3.8828125 16.953125 C-4.93082031 17.96632813 -4.93082031 17.96632813 -6 19 C-9.55038751 17.29231921 -12.79398379 15.25801816 -16.09765625 13.12109375 C-21.54526059 9.91069858 -27.89455485 10.49362422 -34 11 C-40.26355456 12.67701622 -44.47369439 16.68307815 -48 22 C-52.15973734 29.76484303 -52.19772729 38.9742247 -50.49609375 47.53515625 C-48.50941484 53.42707828 -44.89385957 58.10624981 -39.625 61.375 C-32.73981696 64.4655083 -24.00035181 64.38808622 -16.94921875 61.94140625 C-14.53807122 60.73761852 -12.27997674 59.43312824 -10 58 C-8.68 57.34 -7.36 56.68 -6 56 C-0.06 61.445 -0.06 61.445 6 67 C2.32086341 74.35827317 -4.21896747 77.413846 -11.703125 80.23828125 C-23.57216817 84.17444352 -38.82536222 83.55293539 -50 78 C-61.23636148 71.85013023 -67.8663448 63.89340172 -72.109375 51.8515625 C-75.39757796 37.63152691 -74.01636678 23.00123309 -66.49609375 10.5 C-51.5210964 -10.86192393 -21.05515843 -14.24441685 0 0 Z " fill="#022547" transform="translate(737,459)"/>
<path d="M0 0 C0.64324219 0.5878125 1.28648437 1.175625 1.94921875 1.78125 C1.94921875 5.78125 1.94921875 5.78125 -0.45703125 8.578125 C-1.47829212 9.57285961 -2.51000095 10.55695689 -3.55078125 11.53125 C-4.07542969 12.03785156 -4.60007812 12.54445313 -5.140625 13.06640625 C-6.43519488 14.31390087 -7.74185885 15.54882307 -9.05078125 16.78125 C-11.63245941 15.515944 -14.13567389 14.17649214 -16.61328125 12.71875 C-23.29140419 8.95471707 -31.03250137 8.43764603 -38.47265625 10.4296875 C-44.70862419 13.25762645 -49.11549576 18.21055082 -51.92578125 24.40625 C-55.27894396 34.68529045 -53.00501805 44.63643746 -48.48828125 54.03125 C-44.27919192 58.77996617 -39.36488136 61.27977433 -33.08203125 62.23046875 C-25.71410068 62.50581667 -17.88629493 61.31329447 -12.2734375 56.14453125 C-11.86996094 55.69464844 -11.46648438 55.24476563 -11.05078125 54.78125 C-7.92808099 56.19240314 -5.55424444 57.891874 -2.98828125 60.15625 C-2.31667969 60.74148438 -1.64507813 61.32671875 -0.953125 61.9296875 C0.92463286 63.7573204 2.43871482 65.64489865 3.94921875 67.78125 C-7.79316463 78.89903852 -19.12072918 81.41863174 -34.99609375 81.02734375 C-40.05351403 80.79344097 -44.4125186 79.83144004 -49.05078125 77.78125 C-49.95183594 77.39066406 -50.85289062 77.00007813 -51.78125 76.59765625 C-62.55193116 71.35344873 -68.91085252 63.6347452 -73.17578125 52.54296875 C-76.98654905 40.5152329 -76.84231099 25.07147932 -71.05078125 13.78125 C-64.17643223 2.25302753 -54.84042808 -5.36319858 -41.71875 -8.8359375 C-26.30576582 -11.04746378 -13.21901856 -8.29724418 0 0 Z " fill="#022547" transform="translate(701.05078125,343.21875)"/>
<path d="M0 0 C7.59 0 15.18 0 23 0 C28.61 11.22 34.22 22.44 40 34 C42.15285478 30.77071784 43.80324021 27.41478152 45.4765625 23.92578125 C45.80667328 23.2419487 46.13678406 22.55811615 46.47689819 21.8535614 C47.52835928 19.67420979 48.57671639 17.49338151 49.625 15.3125 C50.3383374 13.83258382 51.05187671 12.35276494 51.765625 10.87304688 C53.51314121 7.24999874 55.25645107 3.62496973 57 0 C64.92 0 72.84 0 81 0 C75.51097862 11.30092638 69.57138843 22.25388771 63.34375 33.1640625 C62.81652344 34.10523926 62.28929687 35.04641602 61.74609375 36.01611328 C60.51559633 38.11890125 59.20777929 40.17736794 57.84765625 42.19873047 C51.60603062 51.67584626 50.85000193 59.69657237 51 70.875 C50.99188368 72.44924145 50.98018416 74.02346863 50.96484375 75.59765625 C50.92884783 79.40122536 50.96574921 83.19388047 51 87 C44.07 87 37.14 87 30 87 C30.1134375 84.95425781 30.226875 82.90851563 30.34375 80.80078125 C31.10354842 59.5347565 26.49863854 45.72562702 14.96289062 28.04150391 C12.35845309 24.00592147 10.04474607 19.84134207 7.75 15.625 C5.34442157 11.34997942 5.34442157 11.34997942 2.88085938 7.10839844 C0 2.20690127 0 2.20690127 0 0 Z " fill="#012547" transform="translate(792,335)"/>
<path d="M0 0 C23.1 0 46.2 0 70 0 C70 5.94 70 11.88 70 18 C61.75 18 53.5 18 45 18 C45 40.77 45 63.54 45 87 C38.4 87 31.8 87 25 87 C25 64.23 25 41.46 25 18 C16.75 18 8.5 18 0 18 C0 12.06 0 6.12 0 0 Z " fill="#00284C" transform="translate(955,335)"/>
<path d="M0 0 C6.6 0 13.2 0 20 0 C20 23.1 20 46.2 20 70 C32.54 70 45.08 70 58 70 C58 75.61 58 81.22 58 87 C38.86 87 19.72 87 0 87 C0 58.29 0 29.58 0 0 Z " fill="#002445" transform="translate(1126,335)"/>
<path d="M0 0 C6.93 0 13.86 0 21 0 C21 28.38 21 56.76 21 86 C14.07 86 7.14 86 0 86 C0 57.62 0 29.24 0 0 Z " fill="#082C4D" transform="translate(1049,566)"/>
<path d="M0 0 C6.6 0 13.2 0 20 0 C20 28.38 20 56.76 20 86 C13.4 86 6.8 86 0 86 C0 57.62 0 29.24 0 0 Z " fill="#002244" transform="translate(630,453)"/>
<path d="M0 0 C2.39652528 -0.08139142 4.79025436 -0.14067009 7.1875 -0.1875 C7.86103516 -0.21263672 8.53457031 -0.23777344 9.22851562 -0.26367188 C13.70991312 -0.3292533 16.63428847 -0.04289018 20 3 C24.23645411 10.76266578 24.83978001 20.38093519 26 29 C26.1546875 30.06089844 26.309375 31.12179687 26.46875 32.21484375 C26.68061672 34.73076104 26.74097091 36.58811481 26 39 C23.75616917 41.45945422 20.98136922 42.59776411 18 44 C15.53961314 45.27212784 13.11403131 46.60224925 10.6875 47.9375 C10.07696777 48.24961426 9.46643555 48.56172852 8.83740234 48.88330078 C4.53261783 51.21868512 2.78356232 53.47348624 1 58 C0.34 58 -0.32 58 -1 58 C-1 58.66 -1 59.32 -1 60 C-5.29 60 -9.58 60 -14 60 C-12.39125 57.4321875 -12.39125 57.4321875 -10.75 54.8125 C-0.95542837 37.93417758 -0.66858255 18.98665737 0 0 Z " fill="#EF7406" transform="translate(541,432)"/>
<path d="M0 0 C3.031875 -0.04125 6.06375 -0.0825 9.1875 -0.125 C10.13391357 -0.14320801 11.08032715 -0.16141602 12.05541992 -0.18017578 C17.32936178 -0.21488382 21.51197164 -0.04373758 25.75 3.4375 C28.65834381 7.07292976 28.47684157 11.56970831 28 16 C26.20698229 20.2466209 24.16801186 22.10935545 20 24 C16.55171888 24.36140319 13.14966201 24.28218922 9.6875 24.1875 C4.8921875 24.0946875 4.8921875 24.0946875 0 24 C0 16.08 0 8.16 0 0 Z " fill="#F9FAFA" transform="translate(739,353)"/>
<path d="M0 0 C3.48350269 1.99753301 6.19448387 4.38896774 8 8 C8.52116532 13.22874055 8.59784058 17.6608371 6.4375 22.5 C2.74522452 26.28694921 -0.86920125 27.69560018 -6.0625 28.4375 C-10.92586128 27.7131696 -14.88845739 24.76660421 -18 21 C-19.65112454 16.04662639 -19.85967138 11.0360638 -17.8125 6.1875 C-12.6478407 -0.0457095 -8.01131016 -1.55648312 0 0 Z " fill="#445865" transform="translate(677,689)"/>
<path d="M0 0 C3.95766929 1.94384543 6.32814316 4.96655167 8 9 C8.73285105 13.68683808 8.44402628 17.14366361 6.25 21.375 C2.29308319 25.99140295 -0.52614115 27.68608793 -6.61328125 28.19921875 C-10.78057694 27.85137574 -13.9801594 25.81706953 -17 23 C-19.95705779 18.42383188 -19.87281008 13.24425716 -19 8 C-14.49000843 0.07292892 -8.70596324 -1.10512933 0 0 Z " fill="#4B5E6B" transform="translate(1061,689)"/>
<path d="M0 0 C2.84625 -0.061875 5.6925 -0.12375 8.625 -0.1875 C9.51010254 -0.21481201 10.39520508 -0.24212402 11.30712891 -0.27026367 C16.29697487 -0.32248691 19.67978144 0.22652636 24 3 C27.0057778 6.50674077 27.47892215 9.60075382 27.28515625 14.07421875 C26.70780836 17.97329423 24.99800955 20.18911724 22 22.625 C17.70506864 24.59351021 13.84427142 24.32188712 9.1875 24.1875 C6.155625 24.125625 3.12375 24.06375 0 24 C0 16.08 0 8.16 0 0 Z " fill="#F9F9FA" transform="translate(891,583)"/>
<path d="M0 0 C19.47 0 38.94 0 59 0 C59 5.61 59 11.22 59 17 C46.13 17 33.26 17 20 17 C20 22.94 20 28.88 20 35 C31.55 35 43.1 35 55 35 C55 40.28 55 45.56 55 51 C43.45 51 31.9 51 20 51 C20 56.94 20 62.88 20 69 C33.53 69 47.06 69 61 69 C61 74.61 61 80.22 61 86 C40.87 86 20.74 86 0 86 C0 57.62 0 29.24 0 0 Z M1 1 C1 28.72 1 56.44 1 85 C20.47 85 39.94 85 60 85 C60.21919865 77.30139814 60.21919865 77.30139814 59 71 C39.695 70.505 39.695 70.505 20 70 C19.505 60.1 19.505 60.1 19 50 C30.22 50 41.44 50 53 50 C53 45.38 53 40.76 53 36 C42.11 35.67 31.22 35.34 20 35 C19.505 25.595 19.505 25.595 19 16 C31.87 16 44.74 16 58 16 C58 11.05 58 6.1 58 1 C39.19 1 20.38 1 1 1 Z " fill="#010516" transform="translate(757,453)"/>
<path d="M0 0 C18.81 0 37.62 0 57 0 C57 5.61 57 11.22 57 17 C44.79 17 32.58 17 20 17 C20 22.61 20 28.22 20 34 C19.67 34 19.34 34 19 34 C18.97316013 31.02077407 18.95323963 28.04178705 18.9375 25.0625 C18.92912109 24.21236328 18.92074219 23.36222656 18.91210938 22.48632812 C18.90727539 21.27299805 18.90727539 21.27299805 18.90234375 20.03515625 C18.89448853 18.91185913 18.89448853 18.91185913 18.88647461 17.76586914 C19 16 19 16 20 15 C22.59359322 14.91148471 25.16039691 14.88474055 27.75390625 14.90234375 C28.52935287 14.9037587 29.3047995 14.90517365 30.10374451 14.90663147 C32.59003494 14.91224655 35.0762366 14.92480154 37.5625 14.9375 C39.24413933 14.94251306 40.92578006 14.9470763 42.60742188 14.95117188 C46.73831566 14.96222087 50.86914276 14.97949555 55 15 C55 10.38 55 5.76 55 1 C37.51 1 20.02 1 2 1 C2 28.72 2 56.44 2 85 C20.15 85 38.3 85 57 85 C57 80.38 57 75.76 57 71 C44.79 71 32.58 71 20 71 C20 70.67 20 70.34 20 70 C32.54 69.67 45.08 69.34 58 69 C58 74.61 58 80.22 58 86 C38.86 86 19.72 86 0 86 C0 57.62 0 29.24 0 0 Z " fill="#031029" transform="translate(797,566)"/>
<path d="M0 0 C2.4375 1.125 2.4375 1.125 4 3 C4.52979878 6.5572204 4.43204232 8.31593299 2.5 11.375 C2.005 11.91125 1.51 12.4475 1 13 C1.66 14.32 2.32 15.64 3 17 C3.66 15.68 4.32 14.36 5 13 C6.65 13 8.3 13 10 13 C9.73123047 13.92232422 9.73123047 13.92232422 9.45703125 14.86328125 C9.24433594 15.67152344 9.03164063 16.47976563 8.8125 17.3125 C8.59207031 18.11300781 8.37164063 18.91351562 8.14453125 19.73828125 C7.728777 22.08238616 7.728777 22.08238616 9.44921875 23.66796875 C9.96097656 24.10753906 10.47273437 24.54710937 11 25 C11 25.66 11 26.32 11 27 C7.66666667 27 4.33333333 27 1 27 C-0.299375 27.226875 -1.59875 27.45375 -2.9375 27.6875 C-6.09775807 28.11790828 -6.90419655 28.04484417 -9.9375 26.625 C-12 25 -12 25 -13 24 C-13.41029216 19.73296158 -13.44913896 17.65967285 -11 14.0625 C-10.34 13.381875 -9.68 12.70125 -9 12 C-9.66 11.34 -10.32 10.68 -11 10 C-11.46382725 6.44399109 -11.42769679 4.65009912 -9.4375 1.625 C-6.08716465 -0.6085569 -3.9518567 -0.49398209 0 0 Z " fill="#4D606D" transform="translate(960,689)"/>
<path d="M0 0 C23.1 0 46.2 0 70 0 C70 5.94 70 11.88 70 18 C61.75 18 53.5 18 45 18 C45 40.77 45 63.54 45 87 C38.4 87 31.8 87 25 87 C25 64.23 25 41.46 25 18 C16.75 18 8.5 18 0 18 C0 12.06 0 6.12 0 0 Z M1 2 C1 6.62 1 11.24 1 16 C8.92 16.33 16.84 16.66 25 17 C25.33 39.77 25.66 62.54 26 86 C31.94 86 37.88 86 44 86 C44.33 63.23 44.66 40.46 45 17 C52.59 16.67 60.18 16.34 68 16 C68 11.38 68 6.76 68 2 C45.89 2 23.78 2 1 2 Z " fill="#020A24" transform="translate(955,335)"/>
<path d="M0 0 C14.19642857 -0.66964286 14.19642857 -0.66964286 17.875 2 C20.24163049 5.3411254 20.76457174 7.0606874 20.4765625 11.0625 C19.74522123 14.0358219 18.12943549 15.87056451 16 18 C16.3609375 18.48210938 16.721875 18.96421875 17.09375 19.4609375 C17.5578125 20.09257813 18.021875 20.72421875 18.5 21.375 C18.9640625 22.00148438 19.428125 22.62796875 19.90625 23.2734375 C21 25 21 25 21 27 C18.3125 27.5 18.3125 27.5 15 27 C13.5061206 25.04747342 12.40693669 23.00623573 11.234375 20.84765625 C10.07257588 18.71039402 10.07257588 18.71039402 7.1875 18 C6.465625 18 5.74375 18 5 18 C5 20.97 5 23.94 5 27 C3.35 27 1.7 27 0 27 C0 18.09 0 9.18 0 0 Z " fill="#445965" transform="translate(1135,689)"/>
<path d="M0 0 C14.19642857 -0.66964286 14.19642857 -0.66964286 17.875 2 C20.24163049 5.3411254 20.76457174 7.0606874 20.4765625 11.0625 C19.74522123 14.0358219 18.12943549 15.87056451 16 18 C16.3609375 18.48210938 16.721875 18.96421875 17.09375 19.4609375 C17.5578125 20.09257813 18.021875 20.72421875 18.5 21.375 C18.9640625 22.00148438 19.428125 22.62796875 19.90625 23.2734375 C21 25 21 25 21 27 C18.3125 27.5 18.3125 27.5 15 27 C13.5061206 25.04747342 12.40693669 23.00623573 11.234375 20.84765625 C10.07257588 18.71039402 10.07257588 18.71039402 7.1875 18 C6.465625 18 5.74375 18 5 18 C5 20.97 5 23.94 5 27 C3.35 27 1.7 27 0 27 C0 18.09 0 9.18 0 0 Z " fill="#4C606D" transform="translate(1015,689)"/>
<path d="M0 0 C2.15944321 3.23916481 3.22858297 6.4046389 4.3828125 10.07421875 C4.71150833 11.09996758 4.71150833 11.09996758 5.04684448 12.1464386 C5.74397319 14.32541318 6.43456173 16.50639733 7.125 18.6875 C7.59722621 20.167455 8.06987754 21.64727441 8.54296875 23.12695312 C9.70105236 26.74951992 10.85026611 30.37473206 12 34 C4.08 34 -3.84 34 -12 34 C-10.45449704 29.31766072 -8.90722346 24.63598907 -7.35522461 19.95581055 C-6.8274528 18.36241757 -6.30075694 16.7686678 -5.77514648 15.17456055 C-5.02087291 12.88756895 -4.26278011 10.60187483 -3.50390625 8.31640625 C-3.26845596 7.59973282 -3.03300568 6.88305939 -2.79042053 6.14466858 C-1.11387171 1.11387171 -1.11387171 1.11387171 0 0 Z " fill="#F7F8F9" transform="translate(1066,355)"/>
<path d="M0 0 C1.98 0 3.96 0 6 0 C8.31 4.62 10.62 9.24 13 14 C15.64 9.38 18.28 4.76 21 0 C22.65 0 24.3 0 26 0 C26 8.91 26 17.82 26 27 C24.68 27 23.36 27 22 27 C21.67 21.72 21.34 16.44 21 11 C19.35 14.3 17.7 17.6 16 21 C14.35 21 12.7 21 11 21 C9.35 18.03 7.7 15.06 6 12 C5.67 16.95 5.34 21.9 5 27 C3.35 27 1.7 27 0 27 C0 18.09 0 9.18 0 0 Z " fill="#495D69" transform="translate(1189,689)"/>
<path d="M0 0 C5 0 5 0 6.66918945 1.56054688 C7.14573975 2.27275391 7.62229004 2.98496094 8.11328125 3.71875 C8.9012207 4.86923828 8.9012207 4.86923828 9.70507812 6.04296875 C10.23552734 6.85378906 10.76597656 7.66460938 11.3125 8.5 C11.86228516 9.31082031 12.41207031 10.12164063 12.97851562 10.95703125 C14.33423542 12.96113877 15.66913916 14.979299 17 17 C17.33 11.39 17.66 5.78 18 0 C19.65 0 21.3 0 23 0 C23 8.91 23 17.82 23 27 C17 27 17 27 15.32495117 25.54711914 C14.90189697 24.88317139 14.47884277 24.21922363 14.04296875 23.53515625 C13.33430664 22.45911133 13.33430664 22.45911133 12.61132812 21.36132812 C11.9065332 20.2234082 11.9065332 20.2234082 11.1875 19.0625 C10.22279249 17.57413044 9.25795555 16.08584475 8.29296875 14.59765625 C7.66684692 13.60004272 7.66684692 13.60004272 7.02807617 12.58227539 C6.0939582 11.02473176 6.0939582 11.02473176 5 10 C5 15.61 5 21.22 5 27 C3.35 27 1.7 27 0 27 C0 18.09 0 9.18 0 0 Z " fill="#445965" transform="translate(851,689)"/>
<path d="M0 0 C5 0 5 0 6.56152344 1.43701172 C6.98981445 2.09459473 7.41810547 2.75217773 7.859375 3.4296875 C8.33503906 4.14253906 8.81070312 4.85539063 9.30078125 5.58984375 C9.77902344 6.34394531 10.25726562 7.09804688 10.75 7.875 C11.24371094 8.62136719 11.73742188 9.36773438 12.24609375 10.13671875 C15.67611607 15.35223214 15.67611607 15.35223214 17 18 C17.33 12.06 17.66 6.12 18 0 C19.65 0 21.3 0 23 0 C23 8.91 23 17.82 23 27 C17 27 17 27 15.30908203 25.53125 C14.87966309 24.8609375 14.45024414 24.190625 14.0078125 23.5 C13.29238281 22.4171875 13.29238281 22.4171875 12.5625 21.3125 C12.088125 20.549375 11.61375 19.78625 11.125 19 C10.62742187 18.236875 10.12984375 17.47375 9.6171875 16.6875 C8.39272506 14.80371164 7.1938383 12.90334363 6 11 C5.67 16.28 5.34 21.56 5 27 C3.35 27 1.7 27 0 27 C0 18.09 0 9.18 0 0 Z " fill="#4B5E6B" transform="translate(1249,689)"/>
<path d="M0 0 C5 0 5 0 6.56152344 1.34521484 C7.20395996 2.26874756 7.20395996 2.26874756 7.859375 3.2109375 C8.57287109 4.21253906 8.57287109 4.21253906 9.30078125 5.234375 C9.77902344 5.94078125 10.25726562 6.6471875 10.75 7.375 C11.24371094 8.07367187 11.73742187 8.77234375 12.24609375 9.4921875 C15.72228423 14.44456845 15.72228423 14.44456845 17 17 C17.33 11.39 17.66 5.78 18 0 C19.65 0 21.3 0 23 0 C23 8.91 23 17.82 23 27 C21.35 27 19.7 27 18 27 C15.6484375 24.55078125 15.6484375 24.55078125 13.375 21.3125 C12.24191406 19.72888672 12.24191406 19.72888672 11.0859375 18.11328125 C9.30927106 15.46158996 7.64220165 12.73700275 6 10 C5.67 15.61 5.34 21.22 5 27 C3.35 27 1.7 27 0 27 C0 18.09 0 9.18 0 0 Z " fill="#4F626E" transform="translate(692,689)"/>
<path d="M0 0 C13 0 13 0 18 3 C19.61707958 6.23415916 19.56822376 9.50375265 19 13 C17.0625 16 17.0625 16 14 18 C10.87343604 18.40258432 8.17488991 18.23693208 5 18 C5 20.97 5 23.94 5 27 C3.35 27 1.7 27 0 27 C0 18.09 0 9.18 0 0 Z " fill="#4F636F" transform="translate(989,689)"/>
<path d="M0 0 C1.98 0 3.96 0 6 0 C7.50801568 3.93447709 9.00502914 7.87304977 10.5 11.8125 C10.92925781 12.93205078 11.35851562 14.05160156 11.80078125 15.20507812 C12.20683594 16.27822266 12.61289062 17.35136719 13.03125 18.45703125 C13.40830078 19.44678955 13.78535156 20.43654785 14.17382812 21.45629883 C15 24 15 24 15 27 C13.35 27 11.7 27 10 27 C9.34 25.02 8.68 23.04 8 21 C4.37 21 0.74 21 -3 21 C-3.33 22.98 -3.66 24.96 -4 27 C-5.98 27 -7.96 27 -10 27 C-8.90341184 23.62249048 -7.79637938 20.24849218 -6.6875 16.875 C-6.37876953 15.92367187 -6.07003906 14.97234375 -5.75195312 13.9921875 C-4.14205314 9.11164858 -2.46856772 4.51178223 0 0 Z " fill="#455A66" transform="translate(829,689)"/>
<path d="M0 0 C1.65 0 3.3 0 5 0 C5.06058594 1.25296875 5.12117188 2.5059375 5.18359375 3.796875 C5.26802256 5.44792724 5.35266939 7.09896835 5.4375 8.75 C5.47681641 9.575 5.51613281 10.4 5.55664062 11.25 C5.59853516 12.04921875 5.64042969 12.8484375 5.68359375 13.671875 C5.72025146 14.4050293 5.75690918 15.13818359 5.79467773 15.89355469 C6.00114785 18.01177605 6.43132086 19.9519456 7 22 C10.41642759 22.25015873 10.41642759 22.25015873 14 22 C16.05127844 18.92308234 16.27260872 18.06355001 16.4140625 14.55078125 C16.45273438 13.70322266 16.49140625 12.85566406 16.53125 11.98242188 C16.5621875 11.10134766 16.593125 10.22027344 16.625 9.3125 C16.66367188 8.41982422 16.70234375 7.52714844 16.7421875 6.60742188 C16.83640218 4.4051538 16.92201588 2.20289278 17 0 C18.65 0 20.3 0 22 0 C22.11660824 3.39554235 22.18738372 6.79056679 22.25 10.1875 C22.30027344 11.62706055 22.30027344 11.62706055 22.3515625 13.09570312 C22.45079662 20.26536847 22.45079662 20.26536847 20.1015625 24.09375 C17.06765512 26.84569573 15.20280396 27.84311253 11.125 28.375 C7.12846204 27.89541545 5.09540692 26.53260567 2 24 C0.11350816 21.00226517 -0.24034266 18.74672713 -0.1953125 15.234375 C-0.18886719 14.34492187 -0.18242188 13.45546875 -0.17578125 12.5390625 C-0.15902344 11.61867188 -0.14226562 10.69828125 -0.125 9.75 C-0.11597656 8.81414063 -0.10695313 7.87828125 -0.09765625 6.9140625 C-0.07413636 4.60911343 -0.04126853 2.3046884 0 0 Z " fill="#334A57" transform="translate(1105,689)"/>
<path d="M0 0 C1.65 0 3.3 0 5 0 C5.01981934 0.55985596 5.03963867 1.11971191 5.06005859 1.6965332 C5.15537783 4.23565854 5.26502753 6.77396888 5.375 9.3125 C5.4059375 10.19357422 5.436875 11.07464844 5.46875 11.98242188 C5.50742187 12.82998047 5.54609375 13.67753906 5.5859375 14.55078125 C5.6173584 15.33106689 5.6487793 16.11135254 5.68115234 16.9152832 C5.89587889 19.30155768 5.89587889 19.30155768 8 22 C11.58357241 22.25015873 11.58357241 22.25015873 15 22 C15.90833969 19.27498092 16.18359985 17.37766029 16.31640625 14.55078125 C16.35830078 13.70322266 16.40019531 12.85566406 16.44335938 11.98242188 C16.48267578 11.10134766 16.52199219 10.22027344 16.5625 9.3125 C16.60568359 8.41982422 16.64886719 7.52714844 16.69335938 6.60742188 C16.79935353 4.40509892 16.90142051 2.20266527 17 0 C18.65 0 20.3 0 22 0 C22.11698258 3.20802233 22.18750607 6.41549025 22.25 9.625 C22.28351562 10.52863281 22.31703125 11.43226563 22.3515625 12.36328125 C22.43766719 18.26145283 21.91822268 21.50662537 18 26 C14.9225095 27.91303463 13.14190292 28.00253398 9.5 27.9375 C5.35428353 26.82704023 3.74497384 25.22938099 1 22 C0.67 21.67 0.34 21.34 0 21 C-0.08685603 19.43827255 -0.10702219 17.87270656 -0.09765625 16.30859375 C-0.09443359 15.36435547 -0.09121094 14.42011719 -0.08789062 13.44726562 C-0.07951172 12.45404297 -0.07113281 11.46082031 -0.0625 10.4375 C-0.05798828 9.44041016 -0.05347656 8.44332031 -0.04882812 7.41601562 C-0.03700007 4.94395151 -0.02051849 2.47200482 0 0 Z " fill="#364C5A" transform="translate(748,689)"/>
<path d="M0 0 C13.86 0 27.72 0 42 0 C42 0.66 42 1.32 42 2 C28.8 2 15.6 2 2 2 C2 29.72 2 57.44 2 86 C7.61 86 13.22 86 19 86 C19 77.42 19 68.84 19 60 C19.33 60 19.66 60 20 60 C20 68.91 20 77.82 20 87 C13.4 87 6.8 87 0 87 C0 58.29 0 29.58 0 0 Z " fill="#011130" transform="translate(718,335)"/>
<path d="M0 0 C5.94 0 11.88 0 18 0 C18 1.65 18 3.3 18 5 C13.71 5 9.42 5 5 5 C5 6.98 5 8.96 5 11 C8.63 11 12.26 11 16 11 C16 12.32 16 13.64 16 15 C12.37 15 8.74 15 5 15 C5 17.64 5 20.28 5 23 C9.29 23 13.58 23 18 23 C18 24.32 18 25.64 18 27 C12.06 27 6.12 27 0 27 C0 18.09 0 9.18 0 0 Z " fill="#3F5461" transform="translate(1224,689)"/>
<path d="M0 0 C5.94 0 11.88 0 18 0 C18 1.65 18 3.3 18 5 C13.71 5 9.42 5 5 5 C5 6.98 5 8.96 5 11 C8.63 11 12.26 11 16 11 C16 12.32 16 13.64 16 15 C12.37 15 8.74 15 5 15 C5 17.64 5 20.28 5 23 C9.29 23 13.58 23 18 23 C18 24.32 18 25.64 18 27 C12.06 27 6.12 27 0 27 C0 18.09 0 9.18 0 0 Z " fill="#3B515E" transform="translate(1164,689)"/>
<path d="M0 0 C1.28583984 0.00580078 1.28583984 0.00580078 2.59765625 0.01171875 C4.9375 0.3125 4.9375 0.3125 7.9375 2.3125 C7.2775 3.6325 6.6175 4.9525 5.9375 6.3125 C2.9675 5.9825 -0.0025 5.6525 -3.0625 5.3125 C-3.0625 6.6325 -3.0625 7.9525 -3.0625 9.3125 C-2.37542969 9.55484375 -1.68835938 9.7971875 -0.98046875 10.046875 C-0.07941406 10.38203125 0.82164062 10.7171875 1.75 11.0625 C2.64332031 11.38734375 3.53664063 11.7121875 4.45703125 12.046875 C7.23763272 13.46563858 8.40455267 14.61207622 9.9375 17.3125 C10 20.8125 10 20.8125 8.9375 24.3125 C6.30778136 26.94221864 4.45376655 28.23117775 0.6796875 28.43359375 C-3.65563276 28.09735604 -6.88019437 27.49480563 -10.0625 24.3125 C-9.4025 22.9925 -8.7425 21.6725 -8.0625 20.3125 C-7.546875 20.6425 -7.03125 20.9725 -6.5 21.3125 C-3.28223488 22.63260877 -0.5054472 22.44492105 2.9375 22.3125 C2.82576479 19.86343214 2.82576479 19.86343214 1.9375 17.3125 C-0.29016195 15.9846318 -0.29016195 15.9846318 -3 15.25 C-7.75085328 13.76664005 -7.75085328 13.76664005 -9.38671875 11.3828125 C-10.37737057 8.34786762 -9.96596779 6.34557044 -9.0625 3.3125 C-6.10938747 0.48547543 -4.04142196 -0.07924357 0 0 Z " fill="#415663" transform="translate(732.0625,688.6875)"/>
<path d="M0 0 C2.3597567 1.44711576 3.34613065 2.7188009 5 5 C3.25 6.125 3.25 6.125 1 7 C0.401875 6.690625 -0.19625 6.38125 -0.8125 6.0625 C-4.11667974 4.4576127 -6.50184434 5.17316321 -10 6 C-12.12835316 7.60611836 -12.89557124 8.48914579 -13.43359375 11.12109375 C-13.4454059 16.10777913 -13.4454059 16.10777913 -11.375 20.5625 C-8.33244416 22.40404695 -6.502304 22.44710264 -3 22 C-2.01 21.34 -1.02 20.68 0 20 C2.1875 20.375 2.1875 20.375 4 21 C4 24 4 24 2.5625 25.625 C-1.19431088 27.64084974 -4.75491389 28.11812414 -9 28 C-13.67748417 26.41142047 -16.67292549 24.38564042 -19 20 C-19.72930234 14.70139526 -20.17359996 9.07364279 -17.25 4.375 C-12.39346602 -0.75134142 -6.78292327 -1.03349275 0 0 Z " fill="#435864" transform="translate(900,689)"/>
<path d="M0 0 C2.35734776 1.45067554 3.34605395 2.7186951 5 5 C3.25 6.125 3.25 6.125 1 7 C0.401875 6.690625 -0.19625 6.38125 -0.8125 6.0625 C-4.14681995 4.44297317 -6.48265651 5.1046762 -10 6 C-12.7959406 8.34498244 -12.97480138 9.80201085 -13.4375 13.4375 C-12.9238874 17.61977402 -12.1741318 19.24351712 -9 22 C-4.8865729 22.58763244 -3.49565336 22.33043558 0 20 C2.1875 20.375 2.1875 20.375 4 21 C4 24 4 24 2.5625 25.625 C-1.21331374 27.6510464 -4.72498763 28.23790119 -9 28 C-12.70553745 26.79801184 -15.30816996 24.75878133 -17.9375 21.875 C-19.5357153 17.55041743 -19.66370515 13.55112104 -19 9 C-14.6872516 0.52852992 -9.15496624 -1.51679914 0 0 Z " fill="#3B505D" transform="translate(648,689)"/>
<path d="M0 0 C2.35734776 1.45067554 3.34605395 2.7186951 5 5 C3.25 6.125 3.25 6.125 1 7 C0.401875 6.690625 -0.19625 6.38125 -0.8125 6.0625 C-4.1788457 4.4274178 -6.46146818 5.03494587 -10 6 C-12.21127604 8.28037841 -12.94723245 9.82305417 -13.08984375 13.00390625 C-12.86204555 16.17555815 -12.36970671 18.51198714 -10.4375 21.0625 C-7.34697991 22.25116157 -5.21264596 21.90776577 -2 21.32421875 C0 21 0 21 4 21 C4 24 4 24 2.5625 25.625 C-1.21635511 27.65267835 -4.72237398 28.23083311 -9 28 C-12.98560446 26.77601399 -15.48704289 24.71152115 -17.9375 21.3125 C-19.29931909 17.06682872 -19.71992115 13.41446158 -19 9 C-14.61706998 0.54720638 -9.19886507 -1.52407232 0 0 Z " fill="#50636F" transform="translate(1094,689)"/>
<path d="M0 0 C3.81185974 0.79413745 5.42588692 1.68315648 8 4.625 C9.36366962 8.63234814 9.44137194 11.60984453 7.75 15.5 C5.40120476 18.3521085 3.75246628 19.52894047 0.0625 20 C-3.67686517 19.54211855 -4.6965709 18.52561443 -7 15.625 C-8.57455739 12.47588521 -8.34799118 10.10491184 -8 6.625 C-6.15574077 2.9762285 -4.1134456 0.85696783 0 0 Z " fill="#F7F7F8" transform="translate(1055,692.375)"/>
<path d="M0 0 C3.15850062 2.75356464 3.90662809 4.34639662 4.5 8.5 C3.90662809 12.65360338 3.15850062 14.24643536 0 17 C-3.4375 18.0625 -3.4375 18.0625 -7 18 C-9.80189446 16.23358828 -11.51524911 14.96950178 -13 12 C-13.39447548 7.81855989 -13.45035186 5.69053952 -11.125 2.125 C-7.36988536 -1.63011464 -5.09635523 -1.23015471 0 0 Z " fill="#F8F9F9" transform="translate(676,694)"/>
<path d="M0 0 C6.93 0 13.86 0 21 0 C21 1.65 21 3.3 21 5 C18.36 5 15.72 5 13 5 C13 12.26 13 19.52 13 27 C11.35 27 9.7 27 8 27 C8 19.74 8 12.48 8 5 C5.36 5 2.72 5 0 5 C0 3.35 0 1.7 0 0 Z " fill="#3B505D" transform="translate(1278,689)"/>
<path d="M0 0 C7.26 0 14.52 0 22 0 C22 1.65 22 3.3 22 5 C19.03 5 16.06 5 13 5 C13 12.26 13 19.52 13 27 C11.35 27 9.7 27 8 27 C8 19.41 8 11.82 8 4 C5.36 4 2.72 4 0 4 C0 2.68 0 1.36 0 0 Z " fill="#3C5260" transform="translate(797,689)"/>
<path d="M0 0 C2.6875 -0.4375 2.6875 -0.4375 6 0 C8.10707585 2.07440801 9.65560852 4.37070339 11 7 C11 7.66 11 8.32 11 9 C13.32714339 6.83334926 14.94191696 5.11616608 16.375 2.25 C16.91125 1.5075 17.4475 0.765 18 0 C21.1875 -0.3125 21.1875 -0.3125 24 0 C23.23302204 1.41875765 22.46123222 2.83491452 21.6875 4.25 C21.25824219 5.03890625 20.82898438 5.8278125 20.38671875 6.640625 C19 9 19 9 17.375 10.84375 C15.40517242 13.9327978 15.48044285 16.62243451 15.3125 20.25 C15.24675781 21.51328125 15.18101562 22.7765625 15.11328125 24.078125 C15.07589844 25.04234375 15.03851562 26.0065625 15 27 C13.35 27 11.7 27 10 27 C10.03222656 26.21238281 10.06445312 25.42476562 10.09765625 24.61328125 C9.98682873 14.20780832 6.11766019 8.86026642 0 1 C0 0.67 0 0.34 0 0 Z " fill="#3B515E" transform="translate(908,689)"/>
<path d="M0 0 C4.62 0 9.24 0 14 0 C14.33 0.99 14.66 1.98 15 3 C11.53188567 4.15603811 8.63431887 4 5 4 C3.76732652 5.00836062 3.76732652 5.00836062 3.90234375 7.06640625 C3.91394531 7.89011719 3.92554688 8.71382812 3.9375 9.5625 C3.94652344 10.38878906 3.95554687 11.21507812 3.96484375 12.06640625 C3.97644531 12.70449219 3.98804688 13.34257813 4 14 C6.31 14.33 8.62 14.66 11 15 C11.28875 15.804375 11.5775 16.60875 11.875 17.4375 C12.73262568 20.1326468 12.73262568 20.1326468 15 21 C14.67 19.35 14.34 17.7 14 16 C14.99 16 15.98 16 17 16 C16.67 16.66 16.34 17.32 16 18 C16.3609375 18.48210938 16.721875 18.96421875 17.09375 19.4609375 C17.5578125 20.09257813 18.021875 20.72421875 18.5 21.375 C18.9640625 22.00148438 19.428125 22.62796875 19.90625 23.2734375 C21 25 21 25 21 27 C18.3125 27.5 18.3125 27.5 15 27 C13.5061206 25.04747342 12.40693669 23.00623573 11.234375 20.84765625 C10.07257588 18.71039402 10.07257588 18.71039402 7.1875 18 C6.465625 18 5.74375 18 5 18 C5 20.97 5 23.94 5 27 C3.35 27 1.7 27 0 27 C0 18.09 0 9.18 0 0 Z " fill="#4A5E69" transform="translate(1015,689)"/>
<path d="M0 0 C1.65 0 3.3 0 5 0 C5 7.59 5 15.18 5 23 C9.29 23 13.58 23 18 23 C18 24.32 18 25.64 18 27 C12.06 27 6.12 27 0 27 C0 18.09 0 9.18 0 0 Z " fill="#465A66" transform="translate(778,689)"/>
<path d="M0 0 C1.65 0 3.3 0 5 0 C5 8.91 5 17.82 5 27 C3.68 27 2.36 27 1 27 C0.67 21.72 0.34 16.44 0 11 C-0.66 12.65 -1.32 14.3 -2 16 C-4.31 16 -6.62 16 -9 16 C-7.4431828 12.8863656 -5.66831868 9.89421738 -3.9375 6.875 C-3.37192383 5.88693359 -3.37192383 5.88693359 -2.79492188 4.87890625 C-1.86376445 3.25232746 -0.93194518 1.62612758 0 0 Z " fill="#2E4554" transform="translate(1210,689)"/>
<path d="M0 0 C1.98 0 3.96 0 6 0 C6.70133599 1.57725347 7.385583 3.16211333 8.0625 4.75 C8.44535156 5.63171875 8.82820312 6.5134375 9.22265625 7.421875 C10.04600008 10.15256309 9.9773992 11.36901347 9 14 C8.34 14 7.68 14 7 14 C6.67 14.99 6.34 15.98 6 17 C3.69 17 1.38 17 -1 17 C-1.33 16.34 -1.66 15.68 -2 15 C-2.99 15.495 -2.99 15.495 -4 16 C-3.65697965 10.01488629 -3.17692157 5.24882694 0 0 Z " fill="#50636F" transform="translate(829,689)"/>
<path d="M0 0 C2.86824854 1.3344554 3.88584357 2.4963937 6 5 C6.875 7.8125 6.875 7.8125 7 10 C6.34 10 5.68 10 5 10 C4.87625 11.299375 4.7525 12.59875 4.625 13.9375 C4.4140625 16.15234375 4.4140625 16.15234375 4 18 C3.34 18.33 2.68 18.66 2 19 C2.061875 17.783125 2.12375 16.56625 2.1875 15.3125 C2.19440601 11.41750797 1.46062325 9.12309875 -1 6 C-3.87470493 4.56264754 -5.81894588 4.61827351 -9 5 C-12.22801254 7.79179463 -13.21625609 10.19609146 -13.75 14.3125 C-13.8325 15.529375 -13.915 16.74625 -14 18 C-14.33 18 -14.66 18 -15 18 C-15.12375 16.865625 -15.2475 15.73125 -15.375 14.5625 C-15.58125 13.386875 -15.7875 12.21125 -16 11 C-16.66 10.67 -17.32 10.34 -18 10 C-18 12.31 -18 14.62 -18 17 C-18.33 17 -18.66 17 -19 17 C-19.49303103 12.97357995 -19.86992855 9.4579358 -17.734375 5.87890625 C-12.47876706 -0.25688846 -8.02219086 -1.00559857 0 0 Z " fill="#405562" transform="translate(1061,689)"/>
<path d="M0 0 C1.65 0 3.3 0 5 0 C5.11698258 3.20802233 5.18750607 6.41549025 5.25 9.625 C5.28351562 10.52863281 5.31703125 11.43226563 5.3515625 12.36328125 C5.41586398 16.76793264 5.20182263 19.55827499 3.34375 23.625 C1 26 1 26 -1.796875 26.5859375 C-2.77140625 26.51632812 -3.7459375 26.44671875 -4.75 26.375 C-5.73484375 26.32085938 -6.7196875 26.26671875 -7.734375 26.2109375 C-8.48203125 26.14132812 -9.2296875 26.07171875 -10 26 C-10.33 25.34 -10.66 24.68 -11 24 C-8.69 24 -6.38 24 -4 24 C-4 23.34 -4 22.68 -4 22 C-3.34 22 -2.68 22 -2 22 C-1.09166031 19.27498092 -0.81640015 17.37766029 -0.68359375 14.55078125 C-0.64169922 13.70322266 -0.59980469 12.85566406 -0.55664062 11.98242188 C-0.49766602 10.66081055 -0.49766602 10.66081055 -0.4375 9.3125 C-0.39431641 8.41982422 -0.35113281 7.52714844 -0.30664062 6.60742188 C-0.20064647 4.40509892 -0.09857949 2.20266527 0 0 Z " fill="#4E626E" transform="translate(765,689)"/>
<path d="M0 0 C1.65 0 3.3 0 5 0 C5.06058594 1.25296875 5.12117188 2.5059375 5.18359375 3.796875 C5.26802256 5.44792724 5.35266939 7.09896835 5.4375 8.75 C5.47681641 9.575 5.51613281 10.4 5.55664062 11.25 C5.59853516 12.04921875 5.64042969 12.8484375 5.68359375 13.671875 C5.72025146 14.4050293 5.75690918 15.13818359 5.79467773 15.89355469 C6.00114785 18.01177605 6.43132086 19.9519456 7 22 C7.66 22 8.32 22 9 22 C9 22.66 9 23.32 9 24 C11.64 24 14.28 24 17 24 C15 26 15 26 11.1875 26.4375 C7.57125407 26.3718694 7.08087704 26.06856967 4.125 23.5625 C3.42375 22.716875 2.7225 21.87125 2 21 C1.34 20.67 0.68 20.34 0 20 C0 13.4 0 6.8 0 0 Z " fill="#455965" transform="translate(1105,689)"/>
<path d="M0 0 C10.56 0 21.12 0 32 0 C32 5.94 32 11.88 32 18 C23.75 18 15.5 18 7 18 C7 17.34 7 16.68 7 16 C14.59 16 22.18 16 30 16 C30 11.38 30 6.76 30 2 C20.43 2 10.86 2 1 2 C0.67 1.34 0.34 0.68 0 0 Z " fill="#081C3A" transform="translate(993,335)"/>
<path d="M0 0 C0.66 0.33 1.32 0.66 2 1 C2.23828125 2.890625 2.23828125 2.890625 2.3125 5.25 C2.64723672 8.87439074 2.9479784 9.9286561 5.1875 13 C8.24971156 15.17757266 10.28509765 15.74082077 14 16 C14 15.34 14 14.68 14 14 C16.31 13.01 18.62 12.02 21 11 C21.66 12.32 22.32 13.64 23 15 C18.29021991 18.74367135 14.10643875 20.43773754 8 20 C3.84292128 18.15240946 2.36339239 16.64199323 0.125 12.6875 C-1.19424214 8.36331744 -2.09520872 4.19041743 0 0 Z " fill="#4F636E" transform="translate(660,697)"/>
<path d="M0 0 C1.65 0 3.3 0 5 0 C4.82082031 0.61488281 4.64164063 1.22976563 4.45703125 1.86328125 C4.24433594 2.67152344 4.03164063 3.47976563 3.8125 4.3125 C3.59207031 5.11300781 3.37164063 5.91351562 3.14453125 6.73828125 C2.728777 9.08238616 2.728777 9.08238616 4.44921875 10.66796875 C5.21685547 11.32732422 5.21685547 11.32732422 6 12 C6 12.66 6 13.32 6 14 C2.66666667 14 -0.66666667 14 -4 14 C-5.41904676 14.14501208 -6.83607595 14.31147679 -8.25 14.5 C-10.10625 14.7475 -10.10625 14.7475 -12 15 C-12.33 14.34 -12.66 13.68 -13 13 C-11.02 12.67 -9.04 12.34 -7 12 C-7.99 11.67 -8.98 11.34 -10 11 C-8.68 10.34 -7.36 9.68 -6 9 C-6.33 7.68 -6.66 6.36 -7 5 C-6.34 5 -5.68 5 -5 5 C-4.34 4.34 -3.68 3.68 -3 3 C-2.34 3 -1.68 3 -1 3 C-0.67 2.01 -0.34 1.02 0 0 Z " fill="#445865" transform="translate(965,702)"/>
<path d="M0 0 C0 0.99 0 1.98 0 3 C0.5775 2.7525 1.155 2.505 1.75 2.25 C2.86375 2.12625 2.86375 2.12625 4 2 C6.25 3.9375 6.25 3.9375 8 6 C7 9 7 9 6 10 C6.99 10.33 7.98 10.66 9 11 C7.35884987 12.64115013 5.37808091 12.47571189 3.125 12.75 C2.24070312 12.86859375 1.35640625 12.9871875 0.4453125 13.109375 C-2 13 -2 13 -3.8046875 11.73828125 C-5.73454318 8.93179178 -5.23974708 6.29652242 -5 3 C-4.67 2.34 -4.34 1.68 -4 1 C-1.9375 0.375 -1.9375 0.375 0 0 Z " fill="#526571" transform="translate(952,703)"/>
<path d="M0 0 C0.33 0 0.66 0 1 0 C1.19421438 2.95803435 1.38066186 5.91620163 1.5625 8.875 C1.64661133 10.13763672 1.64661133 10.13763672 1.73242188 11.42578125 C1.78076172 12.23144531 1.82910156 13.03710938 1.87890625 13.8671875 C1.9260376 14.61081543 1.97316895 15.35444336 2.02172852 16.12060547 C2 18 2 18 1 20 C-9.56 20 -20.12 20 -31 20 C-31 19.67 -31 19.34 -31 19 C-39.91 18.67 -48.82 18.34 -58 18 C-58 17.67 -58 17.34 -58 17 C-38.86 17 -19.72 17 0 17 C0 11.39 0 5.78 0 0 Z " fill="#CAD8E0" transform="translate(1184,405)"/>
<path d="M0 0 C2.59798788 1.57561105 3.7583324 2.29513615 4.75 5.1875 C4.87375 6.0846875 4.87375 6.0846875 5 7 C2 7 2 7 0.25 5.5 C-3.02103975 3.31930683 -5.15016201 3.45967186 -9 4 C-11.77122275 6.35426499 -11.77122275 6.35426499 -14 9 C-14.99 9.33 -15.98 9.66 -17 10 C-17.08159574 14.16138263 -16.98248524 17.9472484 -16 22 C-18 21 -18 21 -19 18 C-19.41110876 13.77822931 -19.47543683 10.12603459 -17.8125 6.1875 C-12.63882368 -0.05659211 -8.01158407 -1.3253142 0 0 Z " fill="#506470" transform="translate(677,689)"/>
<path d="M0 0 C2.4375 1.5 2.4375 1.5 4 3 C3.34 4.98 2.68 6.96 2 9 C1.67 9 1.34 9 1 9 C1 7.35 1 5.7 1 4 C0.773125 4.804375 0.54625 5.60875 0.3125 6.4375 C-0.3371875 7.7059375 -0.3371875 7.7059375 -1 9 C-3.625 9.8125 -3.625 9.8125 -6 10 C-6.99 8.35 -7.98 6.7 -9 5 C-9 6.98 -9 8.96 -9 11 C-9.66 10.67 -10.32 10.34 -11 10 C-11.31785906 6.50355037 -11.39644605 4.602598 -9.4375 1.625 C-6.08716465 -0.6085569 -3.9518567 -0.49398209 0 0 Z " fill="#4A5D6A" transform="translate(960,689)"/>
<path d="M0 0 C10.89 0 21.78 0 33 0 C33 5.28 33 10.56 33 16 C22.11 15.67 11.22 15.34 0 15 C0 14.67 0 14.34 0 14 C10.23 14 20.46 14 31 14 C31 9.71 31 5.42 31 1 C20.77 1 10.54 1 0 1 C0 0.67 0 0.34 0 0 Z " fill="#000923" transform="translate(650,601)"/>
<path d="M0 0 C0.99 0 1.98 0 3 0 C4.03544174 1.90881434 5.05290085 3.82739204 6.0625 5.75 C6.91521484 7.35101562 6.91521484 7.35101562 7.78515625 8.984375 C9.01044806 12.02593537 9.25348607 13.04893565 8 16 C7.731875 15.360625 7.46375 14.72125 7.1875 14.0625 C6.11332248 11.66868314 6.11332248 11.66868314 3 11 C2.67 15.62 2.34 20.24 2 25 C1.34 25 0.68 25 0 25 C0 16.75 0 8.5 0 0 Z " fill="#5C6D78" transform="translate(1191,690)"/>
<path d="M0 0 C0.99 0.99 1.98 1.98 3 3 C3.66 2.34 4.32 1.68 5 1 C5.36630156 4.93774177 5.30233203 6.56539771 3 9.875 C2.34 10.57625 1.68 11.2775 1 12 C1.3609375 12.48210938 1.721875 12.96421875 2.09375 13.4609375 C2.5578125 14.09257813 3.021875 14.72421875 3.5 15.375 C3.9640625 16.00148438 4.428125 16.62796875 4.90625 17.2734375 C6 19 6 19 6 21 C4.02 21 2.04 21 0 21 C0.33 20.34 0.66 19.68 1 19 C1.66 19 2.32 19 3 19 C0.9413783 15.91206745 0.1446688 15.52161393 -3 14 C-3.33 13.34 -3.66 12.68 -4 12 C-6.02463255 11.34786708 -6.02463255 11.34786708 -8 11 C-8 10.34 -8 9.68 -8 9 C-6.02 8.67 -4.04 8.34 -2 8 C-1.34 5.36 -0.68 2.72 0 0 Z " fill="#4A5D69" transform="translate(1150,695)"/>
<path d="M0 0 C13 0 13 0 18 3 C19.58873246 6.17746491 19.41026221 9.54012202 19 13 C17.5 15.5 17.5 15.5 16 17 C14.68 16.67 13.36 16.34 12 16 C12.639375 15.71125 13.27875 15.4225 13.9375 15.125 C16.15206079 14.17176549 16.15206079 14.17176549 17 12 C17 10.02 17 8.04 17 6 C11.06 5.01 11.06 5.01 5 4 C5 3.67 5 3.34 5 3 C6.98 2.67 8.96 2.34 11 2 C7.7 1.67 4.4 1.34 1 1 C1 9.25 1 17.5 1 26 C2.32 26.33 3.64 26.66 5 27 C3.35 27 1.7 27 0 27 C0 18.09 0 9.18 0 0 Z " fill="#314856" transform="translate(989,689)"/>
<path d="M0 0 C1.08209949 3.24629847 0.78140875 3.87436498 0 7 C0.33 7.99 0.66 8.98 1 10 C2.918125 9.938125 2.918125 9.938125 4.875 9.875 C7.0546875 9.8046875 7.0546875 9.8046875 9 10 C9.66 10.66 10.32 11.32 11 12 C7.37 12 3.74 12 0 12 C-0.33 14.31 -0.66 16.62 -1 19 C-2.98 19 -4.96 19 -7 19 C-6.02567877 16.01922628 -5.04473557 13.04067422 -4.0625 10.0625 C-3.78470703 9.21236328 -3.50691406 8.36222656 -3.22070312 7.48632812 C-2.95322266 6.67744141 -2.68574219 5.86855469 -2.41015625 5.03515625 C-2.16402588 4.2862915 -1.91789551 3.53742676 -1.66430664 2.76586914 C-1 1 -1 1 0 0 Z " fill="#4C5F6B" transform="translate(826,697)"/>
<path d="M0 0 C5.41538462 -0.36923077 5.41538462 -0.36923077 8.375 1.5 C8.91125 1.995 9.4475 2.49 10 3 C9.25 7.75 9.25 7.75 7 10 C3.375 10.125 3.375 10.125 0 10 C0 6.7 0 3.4 0 0 Z " fill="#F0F1F2" transform="translate(1020,693)"/>
<path d="M0 0 C2.95980532 0.08670137 5.91646869 0.19353023 8.875 0.3125 C9.71675781 0.33505859 10.55851562 0.35761719 11.42578125 0.38085938 C12.23144531 0.41630859 13.03710938 0.45175781 13.8671875 0.48828125 C14.61081543 0.51446533 15.35444336 0.54064941 16.12060547 0.56762695 C18 1 18 1 20 4 C15.545 4.495 15.545 4.495 11 5 C10.67 11.6 10.34 18.2 10 25 C9.34 25 8.68 25 8 25 C7.67 17.74 7.34 10.48 7 3 C4.69 2.67 2.38 2.34 0 2 C0 1.34 0 0.68 0 0 Z " fill="#62737D" transform="translate(1279,690)"/>
<path d="M0 0 C0.33 0 0.66 0 1 0 C1 1.65 1 3.3 1 5 C-3.29 5 -7.58 5 -12 5 C-11.67 6.98 -11.34 8.96 -11 11 C-8.03 11.33 -5.06 11.66 -2 12 C-2 12.33 -2 12.66 -2 13 C-3.58246707 13.08153933 -5.16616273 13.13943557 -6.75 13.1875 C-7.63171875 13.22230469 -8.5134375 13.25710938 -9.421875 13.29296875 C-12.54204136 12.93840439 -13.8445973 12.27514729 -16 10 C-16.53221157 6.91849504 -16.18258881 4.149657 -16 1 C-11.05 1 -6.1 1 -1 1 C-0.67 1.99 -0.34 2.98 0 4 C0 2.68 0 1.36 0 0 Z " fill="#60717C" transform="translate(1181,689)"/>
<path d="M0 0 C6.27 0 12.54 0 19 0 C19 0.66 19 1.32 19 2 C16.36 2.33 13.72 2.66 11 3 C10.67 10.26 10.34 17.52 10 25 C9.34 25 8.68 25 8 25 C7.67 17.74 7.34 10.48 7 3 C4.69 2.67 2.38 2.34 0 2 C0 1.34 0 0.68 0 0 Z " fill="#5D6E79" transform="translate(798,690)"/>
<path d="M0 0 C1.0209375 0.99 1.0209375 0.99 2.0625 2 C5.71939665 4.48980198 7.65420914 4.55310065 12 4 C14.40083438 2.64114884 14.40083438 2.64114884 16 1 C17.32 1.66 18.64 2.32 20 3 C17.17432678 6.55487922 15.0229049 8.34450131 10.5625 9 C6.31246137 9.24123758 3.4818938 8.61142035 0 6 C-0.9375 3.375 -0.9375 3.375 -1 1 C-0.67 0.67 -0.34 0.34 0 0 Z " fill="#435864" transform="translate(1079,708)"/>
<path d="M0 0 C6.0546875 -0.1953125 6.0546875 -0.1953125 8 0 C8.66 0.66 9.32 1.32 10 2 C9.75 5.0625 9.75 5.0625 9 8 C6.04335481 9.4783226 3.25770263 9.06032783 0 9 C0 6.03 0 3.06 0 0 Z " fill="#F5F6F7" transform="translate(1140,694)"/>
<path d="M0 0 C6.15234375 -0.09765625 6.15234375 -0.09765625 8 0 C9 1 9 1 9.25 3.9375 C9.1675 4.948125 9.085 5.95875 9 7 C5.5647952 9.29013653 4.014669 9.17842973 0 9 C0 6.03 0 3.06 0 0 Z " fill="#F6F7F8" transform="translate(994,694)"/>
<path d="M0 0 C0.33 0 0.66 0 1 0 C1 2.31 1 4.62 1 7 C4.96 7 8.92 7 13 7 C13 8.32 13 9.64 13 11 C9.37 11.33 5.74 11.66 2 12 C1.67 14.31 1.34 16.62 1 19 C0.67 19 0.34 19 0 19 C-0.69508823 12.48755792 -1.31909709 6.4489191 0 0 Z " fill="#465A67" transform="translate(1227,693)"/>
<path d="M0 0 C0.99 0 1.98 0 3 0 C3 8.25 3 16.5 3 25 C2.34 25 1.68 25 1 25 C0.93941406 23.95199219 0.87882812 22.90398438 0.81640625 21.82421875 C0.73198262 20.44529952 0.64733553 19.06639395 0.5625 17.6875 C0.52318359 16.99720703 0.48386719 16.30691406 0.44335938 15.59570312 C0.25072585 12.52838465 -0.02322717 9.93031848 -1 7 C-1.66 7.66 -2.32 8.32 -3 9 C-2.44271087 5.65626525 -1.64826111 2.96687001 0 0 Z " fill="#5F707B" transform="translate(1211,690)"/>
<path d="M0 0 C0.8971875 0.309375 0.8971875 0.309375 1.8125 0.625 C1.8125 3.625 1.8125 3.625 0.375 5.25 C-3.27461696 7.20833105 -7.05071418 7.78498619 -11.1875 7.625 C-12.1775 6.965 -13.1675 6.305 -14.1875 5.625 C-14.1875 4.965 -14.1875 4.305 -14.1875 3.625 C-11.2175 3.625 -8.2475 3.625 -5.1875 3.625 C-5.1875 2.965 -5.1875 2.305 -5.1875 1.625 C-2.1875 -0.375 -2.1875 -0.375 0 0 Z " fill="#50636F" transform="translate(650.1875,709.375)"/>
<path d="M0 0 C1.32 0 2.64 0 4 0 C5.0098473 1.91149668 6.00754495 3.82941569 7 5.75 C7.8353125 7.35101562 7.8353125 7.35101562 8.6875 8.984375 C10 12 10 12 10 16 C11.98 15.67 13.96 15.34 16 15 C15.34 16.98 14.68 18.96 14 21 C12.35 21 10.7 21 9 21 C5.77734375 15.7265625 5.77734375 15.7265625 5 14 C5.33 13.34 5.66 12.68 6 12 C6.99 13.485 6.99 13.485 8 15 C6.99556858 11.75491389 5.89698706 8.79397412 4.375 5.75 C3 3 3 3 3 1 C2.01 0.67 1.02 0.34 0 0 Z " fill="#425764" transform="translate(1191,689)"/>
<path d="M0 0 C0.66 0.66 1.32 1.32 2 2 C1.65066406 2.43828125 1.30132813 2.8765625 0.94140625 3.328125 C-3.35739803 9.31965958 -3.86686981 14.73835333 -4 22 C-4.66 22 -5.32 22 -6 22 C-6.03738281 21.11957031 -6.07476563 20.23914063 -6.11328125 19.33203125 C-6.17902344 18.17058594 -6.24476563 17.00914062 -6.3125 15.8125 C-6.37050781 14.66394531 -6.42851563 13.51539063 -6.48828125 12.33203125 C-7.02254506 8.85319896 -7.9947326 6.85468362 -10 4 C-7.69 4.33 -5.38 4.66 -3 5 C-2.01 3.35 -1.02 1.7 0 0 Z " fill="#5F707B" transform="translate(925,693)"/>
<path d="M0 0 C0.33 0 0.66 0 1 0 C1 1.65 1 3.3 1 5 C-3.29 5 -7.58 5 -12 5 C-12 6.98 -12 8.96 -12 11 C-12.33 11 -12.66 11 -13 11 C-13 8.69 -13 6.38 -13 4 C-13.66 4 -14.32 4 -15 4 C-15.33 5.32 -15.66 6.64 -16 8 C-16 5.69 -16 3.38 -16 1 C-11.05 1 -6.1 1 -1 1 C-0.67 1.99 -0.34 2.98 0 4 C0 2.68 0 1.36 0 0 Z " fill="#6F7E88" transform="translate(1241,689)"/>
<path d="M0 0 C2.09350689 3.4019487 2.17942163 6.05272412 2 10 C2.33 7.69 2.66 5.38 3 3 C3.33 3 3.66 3 4 3 C4.18175781 3.62648438 4.36351562 4.25296875 4.55078125 4.8984375 C4.80214844 5.71570313 5.05351563 6.53296875 5.3125 7.375 C5.55613281 8.18710937 5.79976562 8.99921875 6.05078125 9.8359375 C6.91368185 12.33184629 6.91368185 12.33184629 10 14 C11.9896995 14.39013716 13.99019869 14.73202649 16 15 C16 15.33 16 15.66 16 16 C8.61538462 16.36923077 8.61538462 16.36923077 5.5 14.5 C5.005 14.005 4.51 13.51 4 13 C3.01 14.485 3.01 14.485 2 16 C-1.08977821 10.97911041 -1.63004492 6.75521805 -1 1 C-0.67 0.67 -0.34 0.34 0 0 Z " fill="#3E5461" transform="translate(1076,697)"/>
<path d="M0 0 C1.65 0 3.3 0 5 0 C5.66 1.32 6.32 2.64 7 4 C4.525 3.01 4.525 3.01 2 2 C1.67 9.92 1.34 17.84 1 26 C1.99 26 2.98 26 4 26 C4 20.72 4 15.44 4 10 C4.33 10 4.66 10 5 10 C5 15.61 5 21.22 5 27 C3.35 27 1.7 27 0 27 C0 18.09 0 9.18 0 0 Z " fill="#344B59" transform="translate(692,689)"/>
<path d="M0 0 C-1 3 -1 3 -3 5 C-5.09143803 9.06668506 -5.17760064 12.47118371 -5 17 C-6.32 17.33 -7.64 17.66 -9 18 C-10.06736926 7.5296158 -10.06736926 7.5296158 -7.51171875 3.8671875 C-3 0 -3 0 0 0 Z " fill="#50626E" transform="translate(890,691)"/>
<path d="M0 0 C0.86625 -0.00515625 1.7325 -0.0103125 2.625 -0.015625 C5 0.25 5 0.25 8 2.25 C7.34 3.57 6.68 4.89 6 6.25 C4.54119891 6.10892253 3.08296449 5.96197585 1.625 5.8125 C0.40683594 5.69068359 0.40683594 5.69068359 -0.8359375 5.56640625 C-3 5.25 -3 5.25 -5 4.25 C-4.67 3.59 -4.34 2.93 -4 2.25 C-5.65 3.57 -7.3 4.89 -9 6.25 C-8.6875 4.375 -8.6875 4.375 -8 2.25 C-4.76085771 0.09057181 -3.75140267 -0.02232978 0 0 Z " fill="#415562" transform="translate(732,688.75)"/>
<path d="M0 0 C1.32 0.33 2.64 0.66 4 1 C4 3.33333333 4 5.66666667 4 8 C3.34 8 2.68 8 2 8 C2 13.61 2 19.22 2 25 C1.34 25 0.68 25 0 25 C0 16.75 0 8.5 0 0 Z " fill="#60707B" transform="translate(852,690)"/>
<path d="M0 0 C0.99 0 1.98 0 3 0 C3 6.27 3 12.54 3 19 C1.68 19.33 0.36 19.66 -1 20 C-0.67 13.4 -0.34 6.8 0 0 Z " fill="#5E6F7A" transform="translate(749,690)"/>
<path d="M0 0 C2.6875 -0.4375 2.6875 -0.4375 6 0 C8.04775301 2.11124923 9.53480226 4.45859507 11 7 C10 9 10 9 9 10 C9.66 11.32 10.32 12.64 11 14 C6.93248796 12.64416265 6.11885069 10.56245061 3.8125 7 C3.09707031 5.906875 2.38164063 4.81375 1.64453125 3.6875 C0 1 0 1 0 0 Z " fill="#3F5461" transform="translate(908,689)"/>
<path d="M0 0 C0.66 0.33 1.32 0.66 2 1 C1.67 1.66 1.34 2.32 1 3 C1.3609375 3.48210938 1.721875 3.96421875 2.09375 4.4609375 C2.5578125 5.09257813 3.021875 5.72421875 3.5 6.375 C3.9640625 7.00148438 4.428125 7.62796875 4.90625 8.2734375 C6 10 6 10 6 12 C3.3125 12.5 3.3125 12.5 0 12 C-1.4938794 10.04747342 -2.59306331 8.00623573 -3.765625 5.84765625 C-4.92742412 3.71039402 -4.92742412 3.71039402 -7.8125 3 C-8.534375 3 -9.25625 3 -10 3 C-10 2.67 -10 2.34 -10 2 C-7.25 1.75 -7.25 1.75 -4 2 C-1.625 4 -1.625 4 0 6 C-0.2784375 4.7934375 -0.2784375 4.7934375 -0.5625 3.5625 C-0.706875 2.716875 -0.85125 1.87125 -1 1 C-0.67 0.67 -0.34 0.34 0 0 Z " fill="#3E5461" transform="translate(1030,704)"/>
<path d="M0 0 C0.99 0 1.98 0 3 0 C3.33 6.6 3.66 13.2 4 20 C0 17 0 17 -0.45410156 15.09887695 C-0.4331543 14.40238037 -0.41220703 13.70588379 -0.390625 12.98828125 C-0.37773438 12.23095703 -0.36484375 11.47363281 -0.3515625 10.69335938 C-0.31804687 9.90767578 -0.28453125 9.12199219 -0.25 8.3125 C-0.23195313 7.51521484 -0.21390625 6.71792969 -0.1953125 5.89648438 C-0.14822247 3.93047551 -0.07647899 1.96508506 0 0 Z " fill="#5C6C77" transform="translate(1123,690)"/>
<path d="M0 0 C3.3 0 6.6 0 10 0 C10 1.33333333 10 2.66666667 10 4 C9.071875 4.020625 8.14375 4.04125 7.1875 4.0625 C3.99303786 4.62844359 3.99303786 4.62844359 2.93359375 6.625 C2.20025229 8.38218533 1.59224075 10.19037549 1 12 C0.67 12 0.34 12 0 12 C0 8.04 0 4.08 0 0 Z " fill="#63737E" transform="translate(990,690)"/>
<path d="M0 0 C1.65 0 3.3 0 5 0 C4.67 1.0725 4.34 2.145 4 3.25 C2.65326167 8.20399277 2.65326167 8.20399277 4 13 C0.38144425 12.37611108 -0.1709277 11.8290723 -3 9 C-2.01 6.03 -1.02 3.06 0 0 Z " fill="#5C6D79" transform="translate(965,702)"/>
<path d="M0 0 C0.33 0 0.66 0 1 0 C1.02578125 0.59167969 1.0515625 1.18335938 1.078125 1.79296875 C1.45704414 7.0720013 2.10636661 10.10636661 6 14 C4 16 4 16 1 17 C-0.32 15.35 -1.64 13.7 -3 12 C-2.67 11.34 -2.34 10.68 -2 10 C-0.89131683 6.67395049 -0.45822468 3.46941546 0 0 Z " fill="#445965" transform="translate(885,698)"/>
<path d="M0 0 C8.57142857 -0.14285714 8.57142857 -0.14285714 12 1 C12 1.66 12 2.32 12 3 C11.01 3.495 11.01 3.495 10 4 C10.66 4.33 11.32 4.66 12 5 C12 5.66 12 6.32 12 7 C6.376883 6.59834879 3.95408944 4.76579946 0 1 C0 0.67 0 0.34 0 0 Z " fill="#EBF7F7" transform="translate(351,558)"/>
<path d="M0 0 C0.99 0.33 1.98 0.66 3 1 C-0.625 7.875 -0.625 7.875 -4 9 C-4.08159574 13.16138263 -3.98248524 16.9472484 -3 21 C-5 20 -5 20 -6 17 C-6.52867716 11.57089223 -6.51652211 7.42821303 -3 3 C-1.3125 1.1875 -1.3125 1.1875 0 0 Z " fill="#455A66" transform="translate(664,690)"/>
<path d="M0 0 C1.32 0.33 2.64 0.66 4 1 C4.36923077 8.50769231 4.36923077 8.50769231 2.5 11 C2.005 11.33 1.51 11.66 1 12 C0.01 11.34 -0.98 10.68 -2 10 C-1.34 6.7 -0.68 3.4 0 0 Z " fill="#4A5D69" transform="translate(1031,693)"/>
<path d="M0 0 C0.66 0.33 1.32 0.66 2 1 C2.30859375 2.890625 2.30859375 2.890625 2.4375 5.25 C2.77834431 9.20758119 3.5881897 11.74929916 6 15 C5.01 15.33 4.02 15.66 3 16 C0.375 14.1875 0.375 14.1875 -2 11 C-1.84507473 7.19631739 -1.00694347 3.66219567 0 0 Z " fill="#5E6F7A" transform="translate(631,697)"/>
<path d="M0 0 C8.03501094 -0.78774617 8.03501094 -0.78774617 12.0625 2.5 C12.701875 3.325 13.34125 4.15 14 5 C12.25 6.125 12.25 6.125 10 7 C8.65753688 6.35191436 7.32567199 5.68177416 6 5 C3.66796188 4.9222654 1.33160941 4.91032272 -1 5 C-0.67 4.34 -0.34 3.68 0 3 C2.32156597 2.59270772 4.6568787 2.25561323 7 2 C4.69 1.67 2.38 1.34 0 1 C0 0.67 0 0.34 0 0 Z " fill="#394F5C" transform="translate(1085,689)"/>
<path d="M0 0 C6.93 0 13.86 0 21 0 C21 0.66 21 1.32 21 2 C15.06 2.33 9.12 2.66 3 3 C2.67 3.66 2.34 4.32 2 5 C1.34 3.35 0.68 1.7 0 0 Z " fill="#010F2E" transform="translate(792,335)"/>
<path d="M0 0 C0.66 1.32 1.32 2.64 2 4 C2.66 4 3.32 4 4 4 C4 4.66 4 5.32 4 6 C6.64 6 9.28 6 12 6 C10 8 10 8 6.1875 8.4375 C2.51580183 8.37730823 2.03828113 8.03190094 -1 5.5 C-1.66 4.675 -2.32 3.85 -3 3 C-2.01 2.01 -1.02 1.02 0 0 Z " fill="#61717C" transform="translate(1110,707)"/>
<path d="M0 0 C2.3129482 2.3129482 2.49580975 3.47904875 3.125 6.625 C3.29257812 7.44226563 3.46015625 8.25953125 3.6328125 9.1015625 C3.81457031 10.04128906 3.81457031 10.04128906 4 11 C1.69 11 -0.62 11 -3 11 C-2.01 7.37 -1.02 3.74 0 0 Z " fill="#F2F4F5" transform="translate(831,695)"/>
<path d="M0 0 C0.61875 0.474375 1.2375 0.94875 1.875 1.4375 C3.90705546 3.02417441 3.90705546 3.02417441 6 4 C6.66 2.68 7.32 1.36 8 0 C7.25 6.75 7.25 6.75 5 9 C4.67 9.99 4.34 10.98 4 12 C1.39332748 8.38429295 -0.61341126 5.51020195 -1 1 C-0.67 0.67 -0.34 0.34 0 0 Z " fill="#526571" transform="translate(863,703)"/>
<path d="M0 0 C3.16115776 1.36983503 3.9927092 1.9890638 6 5 C5.67 5.99 5.34 6.98 5 8 C4.67 8 4.34 8 4 8 C3.814375 9.9490625 3.814375 9.9490625 3.625 11.9375 C3.4140625 14.15234375 3.4140625 14.15234375 3 16 C2.34 16.33 1.68 16.66 1 17 C1.061875 15.80375 1.12375 14.6075 1.1875 13.375 C1.20943937 9.26502405 0.13130434 6.5521739 -2 3 C-0.68 3.33 0.64 3.66 2 4 C1.34 2.68 0.68 1.36 0 0 Z " fill="#3E5361" transform="translate(1062,691)"/>
<path d="M0 0 C6.625 0.75 6.625 0.75 10 3 C10 3.66 10 4.32 10 5 C5.71 5 1.42 5 -3 5 C-2.01 3.35 -1.02 1.7 0 0 Z " fill="#EB790F" transform="translate(530,487)"/>
<path d="M0 0 C2.5 2.25 2.5 2.25 5 5 C5 6.32 5 7.64 5 9 C-1.15234375 8.4140625 -1.15234375 8.4140625 -3 8 C-3.33 7.34 -3.66 6.68 -4 6 C-3.01 6 -2.02 6 -1 6 C-0.67 4.02 -0.34 2.04 0 0 Z " fill="#0F8B9F" transform="translate(494,478)"/>
<path d="M0 0 C2.62187494 1.04874998 3.79371361 1.64931313 5.25 4.125 C5.4975 4.74375 5.745 5.3625 6 6 C5 7 5 7 1.9375 7.0625 C0.968125 7.041875 -0.00125 7.02125 -1 7 C-1.625 4.625 -1.625 4.625 -2 2 C-1.34 1.34 -0.68 0.68 0 0 Z " fill="#F2F5F5" transform="translate(954,705)"/>
<path d="M0 0 C1.17755859 0.13148438 1.17755859 0.13148438 2.37890625 0.265625 C4.4375 0.75 4.4375 0.75 6.4375 2.75 C5.82261719 2.79898438 5.20773437 2.84796875 4.57421875 2.8984375 C3.76597656 2.97320313 2.95773437 3.04796875 2.125 3.125 C0.92423828 3.22941406 0.92423828 3.22941406 -0.30078125 3.3359375 C-2.83474441 3.64564426 -2.83474441 3.64564426 -5.5625 5.75 C-6.5525 5.75 -7.5425 5.75 -8.5625 5.75 C-8.25 3.875 -8.25 3.875 -7.5625 1.75 C-4.27151716 -0.44398856 -3.71417419 -0.46503664 0 0 Z " fill="#576975" transform="translate(641.5625,689.25)"/>
<path d="M0 0 C0.99 1.485 0.99 1.485 2 3 C0.02 3.99 0.02 3.99 -2 5 C-2.350625 4.525625 -2.70125 4.05125 -3.0625 3.5625 C-5.84163543 1.32126175 -8.5144717 1.32882342 -12 1 C-8.22570957 -2.77429043 -4.52580725 -2.4463823 0 0 Z " fill="#556672" transform="translate(903,691)"/>
<path d="M0 0 C0 1.32 0 2.64 0 4 C-0.66 4 -1.32 4 -2 4 C-1.505 4.78375 -1.01 5.5675 -0.5 6.375 C1 9 1 9 1 11 C-1.475 10.01 -1.475 10.01 -4 9 C-4 8.34 -4 7.68 -4 7 C-4.66 7 -5.32 7 -6 7 C-5.37162381 3.35541809 -4.14650034 0 0 0 Z " fill="#5B6C78" transform="translate(728,691)"/>
<path d="M0 0 C0.99 0 1.98 0 3 0 C3 0.99 3 1.98 3 3 C2.34 3 1.68 3 1 3 C1.103125 4.051875 1.20625 5.10375 1.3125 6.1875 C1 10 1 10 -1.5 12.9375 C-2.325 13.618125 -3.15 14.29875 -4 15 C-3.125 10.125 -3.125 10.125 -2 9 C-1.79395915 7.67218122 -1.6337041 6.33704105 -1.5 5 C-1.11111111 1.11111111 -1.11111111 1.11111111 0 0 Z " fill="#5F707B" transform="translate(1066,698)"/>
<path d="M0 0 C0.66 0.33 1.32 0.66 2 1 C2.37890625 2.9609375 2.37890625 2.9609375 2.5625 5.375 C2.78753088 8.19477465 3.09554568 10.28663703 4 13 C3.01 13.33 2.02 13.66 1 14 C-0.99851462 9.8780636 -1.25785684 6.55547083 -1 2 C-0.67 1.34 -0.34 0.68 0 0 Z " fill="#5E6F7A" transform="translate(660,697)"/>
<path d="M0 0 C1.25 2.125 1.25 2.125 2 4 C-1 4 -1 4 -4 2 C-6.32387947 1.60612212 -8.65793749 1.26513915 -11 1 C-11 0.34 -11 -0.32 -11 -1 C-3.21145374 -2.49779736 -3.21145374 -2.49779736 0 0 Z " fill="#5C6D79" transform="translate(1063,691)"/>
<path d="M0 0 C0.66 0.639375 1.32 1.27875 2 1.9375 C5.85690912 4.58912502 8.37840033 4.68667121 13 5 C13 5.66 13 6.32 13 7 C8.48382401 7.07654536 4.40914783 7.10228696 0 6 C-0.38218767 4.34385343 -0.71395102 2.67542976 -1 1 C-0.67 0.67 -0.34 0.34 0 0 Z " fill="#5F707A" transform="translate(1079,708)"/>
<path d="M0 0 C0.33 0 0.66 0 1 0 C1.33 2.64 1.66 5.28 2 8 C2.66 8 3.32 8 4 8 C4 5.36 4 2.72 4 0 C4.33 0 4.66 0 5 0 C5.08131463 1.43655854 5.13933559 2.8744483 5.1875 4.3125 C5.22230469 5.11300781 5.25710938 5.91351562 5.29296875 6.73828125 C4.93801608 9.47851584 4.10633718 10.29171079 2 12 C1.34 11.34 0.68 10.68 0 10 C-0.99 10.495 -0.99 10.495 -2 11 C-1.34 7.37 -0.68 3.74 0 0 Z " fill="#3B525F" transform="translate(680,699)"/>
<path d="M0 0 C2.4375 0.375 2.4375 0.375 5 1 C5.33 1.66 5.66 2.32 6 3 C5.34 3 4.68 3 4 3 C4 5.64 4 8.28 4 11 C3.01 11.495 3.01 11.495 2 12 C2.0928125 10.576875 2.0928125 10.576875 2.1875 9.125 C2.125625 8.09375 2.06375 7.0625 2 6 C-1.18762365 3.87491756 -3.26512223 3.4979837 -7 3 C-7 2.67 -7 2.34 -7 2 C-4.03 2 -1.06 2 2 2 C1.34 1.34 0.68 0.68 0 0 Z " fill="#3C525F" transform="translate(1027,690)"/>
<path d="M0 0 C0.33 0 0.66 0 1 0 C1.33 4.29 1.66 8.58 2 13 C2.33 13 2.66 13 3 13 C3 15.31 3 17.62 3 20 C2.01 20 1.02 20 0 20 C0 13.4 0 6.8 0 0 Z " fill="#576A75" transform="translate(1136,695)"/>
<path d="M0 0 C0.99 0.66 1.98 1.32 3 2 C2.67 3.65 2.34 5.3 2 7 C1.175 6.360625 0.35 5.72125 -0.5 5.0625 C-4.23191406 2.53586919 -7.55723303 2.30639772 -12 2 C-12 1.67 -12 1.34 -12 1 C-11.21753906 1.01160156 -10.43507813 1.02320313 -9.62890625 1.03515625 C-8.61699219 1.04417969 -7.60507813 1.05320312 -6.5625 1.0625 C-5.04849609 1.07990234 -5.04849609 1.07990234 -3.50390625 1.09765625 C-1.05978933 1.28612676 -1.05978933 1.28612676 0 0 Z " fill="#5F717D" transform="translate(1152,692)"/>
<path d="M0 0 C0.66 0.33 1.32 0.66 2 1 C2 1.66 2 2.32 2 3 C5.3 3 8.6 3 12 3 C10 5 10 5 7.94140625 5.265625 C7.15636719 5.26046875 6.37132812 5.2553125 5.5625 5.25 C4.38880859 5.25773438 4.38880859 5.25773438 3.19140625 5.265625 C1 5 1 5 -2 3 C-2 2.34 -2 1.68 -2 1 C-1.34 0.67 -0.68 0.34 0 0 Z " fill="#5D6F79" transform="translate(726,710)"/>
<path d="M0 0 C1.65 1.65 3.3 3.3 5 5 C4.67 5.66 4.34 6.32 4 7 C3.34 6.34 2.68 5.68 2 5 C2.495 6.1446875 2.495 6.1446875 3 7.3125 C4 10 4 10 4 13 C-1.05908096 7.08315098 -1.05908096 7.08315098 -0.8125 2.5625 C-0.544375 1.716875 -0.27625 0.87125 0 0 Z " fill="#435765" transform="translate(703,699)"/>
<path d="M0 0 C0.66 0 1.32 0 2 0 C2.33 1.32 2.66 2.64 3 4 C3.66 3.01 4.32 2.02 5 1 C4.75 3.875 4.75 3.875 4 7 C1.9375 8.375 1.9375 8.375 0 9 C0 8.34 0 7.68 0 7 C-1.32 6.67 -2.64 6.34 -4 6 C-2.68 5.34 -1.36 4.68 0 4 C0 2.68 0 1.36 0 0 Z " fill="#405563" transform="translate(959,693)"/>
<path d="M0 0 C0.99 0.33 1.98 0.66 3 1 C3 1.66 3 2.32 3 3 C5.29629994 4.14814997 7.07698086 4.30769809 9.625 4.5625 C10.44226563 4.64628906 11.25953125 4.73007812 12.1015625 4.81640625 C12.72804688 4.87699219 13.35453125 4.93757812 14 5 C12 7 12 7 9.25 7.375 C5.20032632 6.90772996 3.1099392 5.591616 0 3 C0 2.01 0 1.02 0 0 Z " fill="#485D69" transform="translate(662,710)"/>
<path d="M0 0 C1.67542976 0.28604898 3.34385343 0.61781233 5 1 C4.67 2.32 4.34 3.64 4 5 C2.68 5.33 1.36 5.66 0 6 C-0.38218767 4.34385343 -0.71395102 2.67542976 -1 1 C-0.67 0.67 -0.34 0.34 0 0 Z " fill="#E7EAEB" transform="translate(955,693)"/>
<path d="M0 0 C0.66 0.33 1.32 0.66 2 1 C1.125 4.875 1.125 4.875 0 6 C-1.51928038 6.07179964 -3.04167482 6.08392007 -4.5625 6.0625 C-5.38878906 6.05347656 -6.21507812 6.04445313 -7.06640625 6.03515625 C-7.70449219 6.02355469 -8.34257813 6.01195312 -9 6 C-9 5.67 -9 5.34 -9 5 C-8.071875 4.731875 -7.14375 4.46375 -6.1875 4.1875 C-3.23759634 3.08851629 -1.94384814 2.37581439 0 0 Z " fill="#4D616D" transform="translate(1123,707)"/>
<path d="M0 0 C3 0 3 0 5.1875 1.75 C7 4 7 4 7 8 C3.6223242 6.87410807 2.28636808 5.68056948 0 3 C0 2.01 0 1.02 0 0 Z " fill="#50636F" transform="translate(854,692)"/>
<path d="M0 0 C2.64 0.33 5.28 0.66 8 1 C8 1.99 8 2.98 8 4 C10.4390706 6.20142332 10.4390706 6.20142332 13 8 C9.52709591 7.36276989 7.15645247 5.97562783 4.25 4 C3.45078125 3.46375 2.6515625 2.9275 1.828125 2.375 C1.22484375 1.92125 0.6215625 1.4675 0 1 C0 0.67 0 0.34 0 0 Z " fill="#01A6B7" transform="translate(362,566)"/>
<path d="M0 0 C4.29 0 8.58 0 13 0 C12.67 1.32 12.34 2.64 12 4 C9.03 3.505 9.03 3.505 6 3 C6 2.67 6 2.34 6 2 C3.03 1.505 3.03 1.505 0 1 C0 0.67 0 0.34 0 0 Z " fill="#435763" transform="translate(783,712)"/>
<path d="M0 0 C1.9451 2.91765 2.45276317 4.62537285 3 8 C1.02 8.33 -0.96 8.66 -3 9 C-2.01 6.03 -1.02 3.06 0 0 Z " fill="#E5ECF0" transform="translate(1066,355)"/>
<path d="M0 0 C0.99 0.33 1.98 0.66 3 1 C3 3.31 3 5.62 3 8 C1.68 8.33 0.36 8.66 -1 9 C-0.67 6.03 -0.34 3.06 0 0 Z " fill="#5D6F7A" transform="translate(1043,699)"/>
<path d="M0 0 C0 3 0 3 -1.5 4.6875 C-1.995 5.120625 -2.49 5.55375 -3 6 C-3 3 -3 3 -1.5 1.3125 C-0.7575 0.6628125 -0.7575 0.6628125 0 0 Z M-6 5 C-5.34 5.33 -4.68 5.66 -4 6 C-5.3125 8 -5.3125 8 -7 10 C-7.99 10 -8.98 10 -10 10 C-10 9.01 -10 8.02 -10 7 C-8.125 5.9375 -8.125 5.9375 -6 5 Z " fill="#EBF2F3" transform="translate(781,383)"/>
<path d="M0 0 C2.83022097 3.99560608 1.76210446 7.42737323 1 12 C-1 10 -1 10 -1.23046875 7.87109375 C-1.20919922 6.66646484 -1.20919922 6.66646484 -1.1875 5.4375 C-1.18105469 4.63183594 -1.17460938 3.82617188 -1.16796875 2.99609375 C-1 1 -1 1 0 0 Z " fill="#465A66" transform="translate(1076,697)"/>
<path d="M0 0 C0.66 0 1.32 0 2 0 C2.33 0.66 2.66 1.32 3 2 C3.99 1.34 4.98 0.68 6 0 C4.44499019 3.81684226 1.96404505 6.19195732 -1 9 C-0.67 6.03 -0.34 3.06 0 0 Z " fill="#061933" transform="translate(888,462)"/>
<path d="M0 0 C2.97 0.33 5.94 0.66 9 1 C9 1.66 9 2.32 9 3 C5.7 3.33 2.4 3.66 -1 4 C-0.67 2.68 -0.34 1.36 0 0 Z " fill="#5E707B" transform="translate(889,712)"/>
<path d="M0 0 C0.99 0.99 1.98 1.98 3 3 C2.01 3.99 1.02 4.98 0 6 C-0.99 5.67 -1.98 5.34 -3 5 C-3.33 4.01 -3.66 3.02 -4 2 C-2.68 1.34 -1.36 0.68 0 0 Z " fill="#5F707A" transform="translate(680,708)"/>
<path d="M0 0 C0.99 1.32 1.98 2.64 3 4 C2.01 4.99 1.02 5.98 0 7 C-0.99 5.35 -1.98 3.7 -3 2 C-2.01 1.34 -1.02 0.68 0 0 Z " fill="#576874" transform="translate(1110,707)"/>
<path d="M0 0 C2.76223278 2.76223278 2.57856291 5.20706617 3 9 C1.68 9.33 0.36 9.66 -1 10 C-0.67 6.7 -0.34 3.4 0 0 Z " fill="#61727D" transform="translate(882,699)"/>
<path d="M0 0 C1.98 0.99 1.98 0.99 4 2 C4 3.98 4 5.96 4 8 C2.68 7.67 1.36 7.34 0 7 C0 4.69 0 2.38 0 0 Z " fill="#60727D" transform="translate(736,703)"/>
<path d="M0 0 C0.99 0.33 1.98 0.66 3 1 C4 4 4 4 4 6 C4.63474075 7.34882408 5.29848848 8.6846659 6 10 C3 9 3 9 1.3125 6.6875 C0 4 0 4 0 0 Z " fill="#4B5E6B" transform="translate(913,693)"/>
<path d="M0 0 C1.45922693 0.11409593 2.91740598 0.24165544 4.375 0.375 C5.59316406 0.47941406 5.59316406 0.47941406 6.8359375 0.5859375 C9 1 9 1 11 3 C7.7 3.33 4.4 3.66 1 4 C0.67 2.68 0.34 1.36 0 0 Z " fill="#60727C" transform="translate(1083,689)"/>
<path d="M0 0 C0.66 0.33 1.32 0.66 2 1 C0.88200014 2.33920838 -0.24461897 3.67122556 -1.375 5 C-2.00148438 5.7425 -2.62796875 6.485 -3.2734375 7.25 C-4.12808594 8.11625 -4.12808594 8.11625 -5 9 C-5.66 9 -6.32 9 -7 9 C-5.44499019 5.18315774 -2.96404505 2.80804268 0 0 Z " fill="#018098" transform="translate(430,503)"/>
<path d="M0 0 C0.99 1.32 1.98 2.64 3 4 C2 5 2 5 -0.50390625 5.09765625 C-2.01791016 5.08025391 -2.01791016 5.08025391 -3.5625 5.0625 C-4.57441406 5.05347656 -5.58632813 5.04445313 -6.62890625 5.03515625 C-7.41136719 5.02355469 -8.19382812 5.01195312 -9 5 C-9 4.67 -9 4.34 -9 4 C-7.88625 3.896875 -6.7725 3.79375 -5.625 3.6875 C-4.42875 3.460625 -3.2325 3.23375 -2 3 C-1.34 2.01 -0.68 1.02 0 0 Z " fill="#415763" transform="translate(737,708)"/>
<path d="M0 0 C0.33 0 0.66 0 1 0 C2.31626692 3.61973402 3 6.09567131 3 10 C2.67 9.34 2.34 8.68 2 8 C1.34 8 0.68 8 0 8 C-1.125 2.25 -1.125 2.25 0 0 Z " fill="#5A6D78" transform="translate(951,692)"/>
<path d="M0 0 C0.125 2.875 0.125 2.875 0 6 C-0.66 6.66 -1.32 7.32 -2 8 C-3.4606285 5.35261084 -4 4.10551666 -4 1 C-1 0 -1 0 0 0 Z " fill="#F0F5F6" transform="translate(834,363)"/>
<path d="M0 0 C0.33 0 0.66 0 1 0 C1.33 2.97 1.66 5.94 2 9 C0.68 9.33 -0.64 9.66 -2 10 C-1.34 6.7 -0.68 3.4 0 0 Z " fill="#576974" transform="translate(1167,705)"/>
<path d="M0 0 C1.65 0.33 3.3 0.66 5 1 C4.67 1.99 4.34 2.98 4 4 C0.37 3.67 -3.26 3.34 -7 3 C-7 2.67 -7 2.34 -7 2 C-3.535 1.505 -3.535 1.505 0 1 C0 0.67 0 0.34 0 0 Z " fill="#3E5361" transform="translate(1147,690)"/>
<path d="M0 0 C1.65 0 3.3 0 5 0 C4.34 1.98 3.68 3.96 3 6 C2.01 5.34 1.02 4.68 0 4 C0 2.68 0 1.36 0 0 Z " fill="#405361" transform="translate(965,702)"/>
<path d="M0 0 C0.598125 0.20625 1.19625 0.4125 1.8125 0.625 C0.8225 2.11 0.8225 2.11 -0.1875 3.625 C-3.3125 3.8125 -3.3125 3.8125 -6.1875 3.625 C-4.74381887 0.73763775 -3.28406529 -0.56298262 0 0 Z " fill="#5C6D79" transform="translate(1207.1875,701.375)"/>
<path d="M0 0 C0.66 0.33 1.32 0.66 2 1 C-0.51830747 4.12270126 -1.7261549 4.94523098 -5.75 5.75 C-7.35875 5.87375 -7.35875 5.87375 -9 6 C-6.12050853 3.76039553 -3.23257974 1.70135776 0 0 Z " fill="#04122B" transform="translate(688,400)"/>
<path d="M0 0 C2 2 2 2 2.25 5 C2 8 2 8 0 10 C-1.125 3.375 -1.125 3.375 0 0 Z " fill="#5F707C" transform="translate(1005,693)"/>
<path d="M0 0 C0.66 0 1.32 0 2 0 C2.33 2.31 2.66 4.62 3 7 C2.01 7.33 1.02 7.66 0 8 C0 5.36 0 2.72 0 0 Z " fill="#5D6E79" transform="translate(1031,693)"/>
<path d="M0 0 C2 2 2 2 2.125 5.625 C2.08375 6.73875 2.0425 7.8525 2 9 C1.34 9 0.68 9 0 9 C-1.10844919 5.67465243 -0.84454356 3.37817425 0 0 Z " fill="#031D3C" transform="translate(318,465)"/>
<path d="M0 0 C2.97 0.99 5.94 1.98 9 3 C9 3.33 9 3.66 9 4 C3.375 4.25 3.375 4.25 0 2 C0 1.34 0 0.68 0 0 Z " fill="#60717C" transform="translate(664,711)"/>
<path d="M0 0 C0.66 0.33 1.32 0.66 2 1 C2 1.99 2 2.98 2 4 C0.35 4.33 -1.3 4.66 -3 5 C-3 3.68 -3 2.36 -3 1 C-2.01 0.67 -1.02 0.34 0 0 Z " fill="#60717C" transform="translate(733,700)"/>
<path d="M0 0 C1.65 0 3.3 0 5 0 C5.66 1.32 6.32 2.64 7 4 C4.525 3.01 4.525 3.01 2 2 C1.67 2.66 1.34 3.32 1 4 C0.67 2.68 0.34 1.36 0 0 Z " fill="#3A505E" transform="translate(692,689)"/>
</svg>
